<svg xmlns="http://www.w3.org/2000/svg" width="49" height="48" viewBox="0 0 49 48">
  <g id="IconHistoricoDetalhado" transform="translate(-8859 -5147)">
    <g id="Grupo_1286" data-name="Grupo 1286" transform="translate(3120 224)">
      <ellipse id="Elipse_134" data-name="Elipse 134" cx="24.5" cy="24" rx="24.5" ry="24" transform="translate(5739 4923)" fill="#00adef"/>
    </g>
    <path id="Icon_open-spreadsheet" data-name="Icon open-spreadsheet" d="M2.843,0A2.863,2.863,0,0,0,0,2.843V23.689a2.863,2.863,0,0,0,2.843,2.843H27.479a2.863,2.863,0,0,0,2.843-2.843V2.843A2.863,2.863,0,0,0,27.479,0ZM3.79,3.79H7.58V7.58H3.79Zm7.58,0H26.532V7.58H11.371Zm-7.58,7.58H7.58v3.79H3.79Zm7.58,0H26.532v3.79H11.371Zm-7.58,7.58H7.58v3.79H3.79Zm7.58,0H26.532v3.79H11.371Z" transform="translate(8868.475 5157.241)" fill="#fff"/>
  </g>
</svg>
