<svg xmlns="http://www.w3.org/2000/svg" width="49" height="48" viewBox="0 0 49 48">
  <g id="IconHistoricoMensal" transform="translate(-8859 -5147)">
    <g id="Grupo_1286" data-name="Grupo 1286" transform="translate(3120 224)">
      <path id="Caminho_570" data-name="Caminho 570" d="M24.5,0A24.254,24.254,0,0,1,49,24,24.254,24.254,0,0,1,24.5,48,24.254,24.254,0,0,1,0,24,24.254,24.254,0,0,1,24.5,0Z" transform="translate(5739 4923)" fill="#fa911f"/>
    </g>
    <path id="Icon_awesome-calendar-alt" data-name="Icon awesome-calendar-alt" d="M0,27.415a2.837,2.837,0,0,0,2.836,2.836h20.8a2.837,2.837,0,0,0,2.836-2.836V11.344H0ZM18.907,15.835a.711.711,0,0,1,.709-.709H21.98a.711.711,0,0,1,.709.709V18.2a.711.711,0,0,1-.709.709H19.616a.711.711,0,0,1-.709-.709Zm0,7.563a.711.711,0,0,1,.709-.709H21.98a.711.711,0,0,1,.709.709v2.363a.711.711,0,0,1-.709.709H19.616a.711.711,0,0,1-.709-.709Zm-7.563-7.563a.711.711,0,0,1,.709-.709h2.363a.711.711,0,0,1,.709.709V18.2a.711.711,0,0,1-.709.709H12.053a.711.711,0,0,1-.709-.709Zm0,7.563a.711.711,0,0,1,.709-.709h2.363a.711.711,0,0,1,.709.709v2.363a.711.711,0,0,1-.709.709H12.053a.711.711,0,0,1-.709-.709ZM3.781,15.835a.711.711,0,0,1,.709-.709H6.854a.711.711,0,0,1,.709.709V18.2a.711.711,0,0,1-.709.709H4.49a.711.711,0,0,1-.709-.709Zm0,7.563a.711.711,0,0,1,.709-.709H6.854a.711.711,0,0,1,.709.709v2.363a.711.711,0,0,1-.709.709H4.49a.711.711,0,0,1-.709-.709ZM23.634,3.781H20.8V.945A.948.948,0,0,0,19.852,0H17.962a.948.948,0,0,0-.945.945V3.781H9.454V.945A.948.948,0,0,0,8.508,0H6.617a.948.948,0,0,0-.945.945V3.781H2.836A2.837,2.837,0,0,0,0,6.617V9.454H26.47V6.617A2.837,2.837,0,0,0,23.634,3.781Z" transform="translate(8870.123 5155.402)" fill="#fff"/>
  </g>
</svg>
