<svg xmlns="http://www.w3.org/2000/svg" width="49" height="48" viewBox="0 0 49 48">
  <g id="IconHistoricoDiario" transform="translate(-5739 -4923)">
    <path id="Caminho_569" data-name="Caminho 569" d="M24.5,0A24.254,24.254,0,0,1,49,24,24.254,24.254,0,0,1,24.5,48,24.254,24.254,0,0,1,0,24,24.254,24.254,0,0,1,24.5,0Z" transform="translate(5739 4923)" fill="#00a54f"/>
    <path id="IconHistoricoDiario-2" data-name="IconHistoricoDiario" d="M0,27.414A2.837,2.837,0,0,0,2.836,30.25h20.8a2.837,2.837,0,0,0,2.836-2.836V11.344H0ZM3.781,16.07a.948.948,0,0,1,.945-.945H10.4a.948.948,0,0,1,.945.945v5.672a.948.948,0,0,1-.945.945H4.727a.948.948,0,0,1-.945-.945ZM23.633,3.781H20.8V.945A.948.948,0,0,0,19.852,0H17.961a.948.948,0,0,0-.945.945V3.781H9.453V.945A.948.948,0,0,0,8.508,0H6.617a.948.948,0,0,0-.945.945V3.781H2.836A2.837,2.837,0,0,0,0,6.617V9.453H26.469V6.617A2.837,2.837,0,0,0,23.633,3.781Z" transform="translate(5750.102 4931.885)" fill="#f6f9fc"/>
  </g>
</svg>
