<svg width="16" height="16" viewBox="0 0 16 16" fill="none" xmlns="http://www.w3.org/2000/svg">
<path d="M0.581734 12.2746C0.416404 12.5367 0.228063 12.873 0.0704029 13.1254C0.00291759 13.2432 -0.0170314 13.3834 0.0148049 13.516C0.0466413 13.6487 0.127747 13.7634 0.240847 13.8356L3.55001 15.9225C3.60743 15.9586 3.67125 15.9828 3.73781 15.9936C3.80437 16.0044 3.87235 16.0015 3.93784 15.9853C4.00334 15.9691 4.06506 15.9397 4.11945 15.899C4.17385 15.8582 4.21984 15.8068 4.2548 15.7478C4.38689 15.5207 4.55734 15.2237 4.74312 14.9135C6.05383 12.6957 7.37222 12.9638 9.74735 14.1274L13.0514 15.7242C13.1129 15.7534 13.1794 15.7697 13.2471 15.7723C13.3148 15.7749 13.3823 15.7637 13.4458 15.7393C13.5092 15.7149 13.5673 15.6779 13.6166 15.6303C13.666 15.5827 13.7056 15.5255 13.7332 15.4621L15.3089 11.8099C15.3616 11.6843 15.3644 11.5427 15.3166 11.4151C15.2689 11.2874 15.1744 11.184 15.0533 11.1268C13.9477 10.5939 12.8446 10.0561 11.7441 9.51339C7.27421 7.29637 3.48354 7.44313 0.581734 12.2746ZM15.4197 3.72538C15.5851 3.44848 15.7734 3.12702 15.9311 2.87107C15.9975 2.75359 16.0168 2.61427 15.9851 2.48245C15.9533 2.35063 15.8728 2.2366 15.7606 2.16439L12.4497 0.077526C12.3923 0.0413749 12.3285 0.0172127 12.2619 0.00642832C12.1954 -0.00435606 12.1274 -0.00154987 12.0619 0.0146856C11.9964 0.030921 11.9347 0.0602655 11.8803 0.101032C11.8259 0.141799 11.7799 0.193183 11.745 0.252232C11.5847 0.532926 11.4217 0.811873 11.2558 1.08907C9.94507 3.30696 8.62668 3.03617 6.25155 1.87525L2.95943 0.275817C2.89795 0.246644 2.83143 0.230284 2.76373 0.227688C2.69603 0.225091 2.6285 0.23631 2.56507 0.260692C2.50163 0.285074 2.44356 0.322134 2.39422 0.369718C2.34488 0.417302 2.30526 0.474461 2.27765 0.537876L0.699341 4.18923C0.646649 4.31478 0.643888 4.45646 0.691648 4.58407C0.739408 4.71168 0.83391 4.81511 0.955006 4.87233C1.64616 5.21038 3.02334 5.87427 4.26332 6.48574C8.72725 8.7045 12.5222 8.55513 15.4189 3.72538H15.4197Z" fill="#338AE8"/>
</svg>
