<svg width="23" height="16" viewBox="0 0 23 16" fill="none" xmlns="http://www.w3.org/2000/svg">
<path d="M0.167143 8.61292C0.0577121 8.4272 0 8.21557 0 8C0 7.78444 0.0577121 7.5728 0.167143 7.38708C2.51176 3.42031 6.79483 0 11.0779 0C15.361 0 19.6428 3.42031 21.9875 7.38585C22.0968 7.57226 22.1545 7.78448 22.1545 8.00062C22.1545 8.21675 22.0968 8.42897 21.9875 8.61539C19.6428 12.5797 15.361 16 11.0779 16C6.79483 16 2.51176 12.5797 0.167143 8.61292Z" fill="#00897B"/>
<path d="M13.6884 5.38939C14.0411 5.72991 14.3225 6.13727 14.5161 6.5877C14.7097 7.03813 14.8117 7.52261 14.816 8.01287C14.8204 8.50313 14.7271 8.98936 14.5416 9.44317C14.356 9.89698 14.082 10.3093 13.7354 10.6561C13.3888 11.0028 12.9766 11.2771 12.5228 11.4628C12.0691 11.6486 11.5829 11.7421 11.0927 11.738C10.6024 11.7339 10.1179 11.6321 9.66736 11.4387C9.21684 11.2453 8.80935 10.9641 8.46866 10.6115C7.79591 9.91533 7.42353 8.98273 7.43171 8.01461C7.4399 7.0465 7.82799 6.12033 8.51242 5.43558C9.19684 4.75084 10.1228 4.3623 11.0909 4.35366C12.059 4.34502 12.9918 4.71697 13.6884 5.38939Z" fill="#00897B"/>
<path d="M13.6884 5.38939C14.0411 5.72991 14.3225 6.13727 14.5161 6.5877C14.7097 7.03813 14.8117 7.52261 14.816 8.01287C14.8204 8.50313 14.7271 8.98936 14.5416 9.44317C14.356 9.89698 14.082 10.3093 13.7354 10.6561C13.3888 11.0028 12.9766 11.2771 12.5228 11.4628C12.0691 11.6486 11.5829 11.7421 11.0927 11.738C10.6024 11.7339 10.1179 11.6321 9.66736 11.4387C9.21684 11.2453 8.80935 10.9641 8.46866 10.6115C7.79591 9.91533 7.42353 8.98273 7.43171 8.01461C7.4399 7.0465 7.82799 6.12033 8.51242 5.43558C9.19684 4.75084 10.1228 4.3623 11.0909 4.35366C12.059 4.34502 12.9918 4.71697 13.6884 5.38939" stroke="white" stroke-width="2" stroke-linecap="round" stroke-linejoin="round"/>
</svg>
