<svg width="23" height="23" viewBox="0 0 23 23" fill="none" xmlns="http://www.w3.org/2000/svg">
<path d="M7.92254 14.0684C7.74621 14.0684 7.62737 14.0856 7.56604 14.1029V15.2318C7.63887 15.249 7.72991 15.2538 7.85546 15.2538C8.3145 15.2538 8.59721 15.0219 8.59721 14.6299C8.59721 14.2792 8.35379 14.0684 7.92254 14.0684ZM11.2642 14.0799C11.0726 14.0799 10.948 14.0971 10.8742 14.1144V16.6156C10.948 16.6329 11.0668 16.6329 11.1742 16.6329C11.9571 16.6386 12.467 16.2074 12.467 15.295C12.4727 14.4996 12.0079 14.0799 11.2642 14.0799Z" fill="#CB4034"/>
<path d="M13.4167 1.9165H5.75001C5.24168 1.9165 4.75417 2.11844 4.39472 2.47788C4.03528 2.83733 3.83334 3.32484 3.83334 3.83317V19.1665C3.83334 19.6748 4.03528 20.1623 4.39472 20.5218C4.75417 20.8812 5.24168 21.0832 5.75001 21.0832H17.25C17.7583 21.0832 18.2459 20.8812 18.6053 20.5218C18.9647 20.1623 19.1667 19.6748 19.1667 19.1665V7.6665L13.4167 1.9165ZM9.10226 15.5153C8.80614 15.7932 8.36913 15.9178 7.86026 15.9178C7.76159 15.9188 7.66297 15.9131 7.56509 15.9005V17.2671H6.70834V13.4951C7.09499 13.4374 7.48567 13.4111 7.87655 13.4165C8.41034 13.4165 8.78984 13.5181 9.04572 13.7222C9.28914 13.9158 9.45397 14.233 9.45397 14.6068C9.45301 14.9824 9.32843 15.2996 9.10226 15.5153ZM12.7506 16.8138C12.3481 17.1483 11.7358 17.3073 10.9873 17.3073C10.5388 17.3073 10.2216 17.2786 10.006 17.2498V13.496C10.3928 13.4396 10.7833 13.413 11.1742 13.4165C11.8996 13.4165 12.3711 13.5468 12.7391 13.8248C13.1368 14.1199 13.386 14.5905 13.386 15.2661C13.386 15.9973 13.1186 16.5023 12.7506 16.8138ZM16.2917 14.1544H14.8235V15.0275H16.1958V15.7309H14.8235V17.268H13.9553V13.4453H16.2917V14.1544ZM13.4167 8.62484H12.4583V3.83317L17.25 8.62484H13.4167Z" fill="#CB4034"/>
</svg>
