<svg width="23" height="21" viewBox="0 0 23 21" fill="none" xmlns="http://www.w3.org/2000/svg">
<g clip-path="url(#clip0_201:1999)">
<path d="M1.73884 17.6522L2.75317 19.4081C2.96395 19.7778 3.2669 20.0683 3.62259 20.2796C4.64142 18.9834 5.35046 17.9888 5.75009 17.2957C6.15555 16.5923 6.65392 15.4921 7.24518 13.995C5.65171 13.7848 4.44421 13.6797 3.62268 13.6797C2.83412 13.6797 1.62662 13.7848 0 13.995C0 14.4043 0.105387 14.8136 0.31616 15.1833L1.73884 17.6522V17.6522Z" fill="#0066DA"/>
<path d="M19.3776 20.2796C19.7334 20.0683 20.0363 19.7778 20.247 19.4082L20.6686 18.682L22.6841 15.1833C22.891 14.8216 22.9999 14.412 23.0002 13.995C21.3641 13.7848 20.1589 13.6797 19.3842 13.6797C18.5518 13.6797 17.3464 13.7848 15.7682 13.995C16.3525 15.5003 16.8443 16.6005 17.2436 17.2957C17.6464 17.9971 18.3577 18.9916 19.3776 20.2796V20.2796Z" fill="#EA4335"/>
<path d="M11.5001 6.60141C12.6788 5.17462 13.4912 4.07434 13.9371 3.30075C14.2962 2.67781 14.6914 1.68315 15.1227 0.316874C14.767 0.105625 14.3587 0 13.9371 0H9.06308C8.64153 0 8.23328 0.118862 7.8775 0.316874C8.42609 1.88387 8.89166 2.99909 9.27403 3.66247C9.69666 4.39563 10.4387 5.37525 11.5001 6.60141Z" fill="#00832D"/>
<path d="M15.755 13.9951H7.24518L3.62268 20.2797C3.97828 20.4909 4.38662 20.5965 4.80817 20.5965H18.192C18.6136 20.5965 19.022 20.4777 19.3776 20.2796L15.7551 13.9951H15.755Z" fill="#2684FC"/>
<path d="M11.5001 6.60134L7.87759 0.316895C7.52181 0.528144 7.21886 0.818545 7.00808 1.18828L0.31616 12.8067C0.109261 13.1684 0.000273347 13.5781 0 13.995H7.24518L11.5002 6.60134H11.5001Z" fill="#00AC47"/>
<path d="M19.3382 6.99755L15.9921 1.18828C15.7814 0.818545 15.4784 0.528144 15.1227 0.316895L11.5002 6.60143L15.755 13.9951H22.9871C22.9871 13.5857 22.8817 13.1765 22.6709 12.8068L19.3382 6.99755Z" fill="#FFBA00"/>
</g>
<defs>
<clipPath id="clip0_201:1999">
<rect width="23" height="20.6207" fill="white"/>
</clipPath>
</defs>
</svg>
