<svg width="20" height="20" viewBox="0 0 20 20" fill="none" xmlns="http://www.w3.org/2000/svg">
<path d="M17.849 14.396C18.6045 13.0541 19.0009 11.54 19 10C19 7.61305 18.0518 5.32387 16.364 3.63604C14.6761 1.94821 12.3869 1 10 1C7.61305 1 5.32387 1.94821 3.63604 3.63604C1.94821 5.32387 1 7.61305 1 10C1 12.3869 1.94821 14.6761 3.63604 16.364C5.32387 18.0518 7.61305 19 10 19C11.54 19.0009 13.0541 18.6045 14.396 17.849L19 19L17.849 14.396Z" fill="#3284FF" stroke="#3284FF" stroke-linecap="round" stroke-linejoin="round"/>
<path d="M5.20138 11.1297C5.86489 11.1297 6.40276 10.653 6.40276 10.0649C6.40276 9.47676 5.86489 9 5.20138 9C4.53788 9 4 9.47676 4 10.0649C4 10.653 4.53788 11.1297 5.20138 11.1297Z" fill="white"/>
<path d="M10.1231 11.1297C10.7866 11.1297 11.3245 10.653 11.3245 10.0649C11.3245 9.47676 10.7866 9 10.1231 9C9.45963 9 8.92175 9.47676 8.92175 10.0649C8.92175 10.653 9.45963 11.1297 10.1231 11.1297Z" fill="white"/>
<path d="M15.1612 11.1297C15.8247 11.1297 16.3626 10.653 16.3626 10.0649C16.3626 9.47676 15.8247 9 15.1612 9C14.4977 9 13.9598 9.47676 13.9598 10.0649C13.9598 10.653 14.4977 11.1297 15.1612 11.1297Z" fill="white"/>
</svg>
