<svg width="20" height="20" viewBox="0 0 20 20" fill="none" xmlns="http://www.w3.org/2000/svg">
<path d="M8.29395 9.61133L12.6229 7.11133L8.29395 4.61133V9.61133Z" stroke="#1F2D27" stroke-linecap="round" stroke-linejoin="round"/>
<path d="M17.889 1H2.111C1.96506 0.999869 1.82054 1.02852 1.68568 1.0843C1.55083 1.14009 1.4283 1.22192 1.32511 1.32511C1.22192 1.4283 1.14009 1.55083 1.0843 1.68568C1.02852 1.82054 0.999869 1.96506 1 2.111V12.111C0.999869 12.2569 1.02852 12.4015 1.0843 12.5363C1.14009 12.6712 1.22192 12.7937 1.32511 12.8969C1.4283 13.0001 1.55083 13.0819 1.68568 13.1377C1.82054 13.1935 1.96506 13.2221 2.111 13.222H17.889C18.0349 13.2221 18.1795 13.1935 18.3143 13.1377C18.4492 13.0819 18.5717 13.0001 18.6749 12.8969C18.7781 12.7937 18.8599 12.6712 18.9157 12.5363C18.9715 12.4015 19.0001 12.2569 19 12.111V2.111C19.0001 1.96506 18.9715 1.82054 18.9157 1.68568C18.8599 1.55083 18.7781 1.4283 18.6749 1.32511C18.5717 1.22192 18.4492 1.14009 18.3143 1.0843C18.1795 1.02852 18.0349 0.999869 17.889 1Z" fill="#FFA807" stroke="#1F2D27" stroke-linecap="round" stroke-linejoin="round"/>
<path d="M8 10L12.329 7.5L8 5V10Z" fill="white" stroke="white" stroke-linecap="round" stroke-linejoin="round"/>
<path d="M6.55994 16.551C6.70731 16.6883 6.82552 16.8539 6.9075 17.0379C6.98948 17.2219 7.03357 17.4206 7.03712 17.622C7.04067 17.8234 7.00362 18.0234 6.92818 18.2102C6.85274 18.397 6.74045 18.5667 6.59801 18.7091C6.45558 18.8515 6.28591 18.9638 6.09913 19.0393C5.91236 19.1147 5.7123 19.1518 5.51089 19.1482C5.30949 19.1447 5.11086 19.1006 4.92686 19.0186C4.74286 18.9366 4.57726 18.8184 4.43994 18.671C4.17498 18.3867 4.03073 18.0106 4.03759 17.622C4.04444 17.2334 4.20187 16.8626 4.47669 16.5878C4.75152 16.313 5.12229 16.1555 5.51089 16.1487C5.89949 16.1418 6.27559 16.2861 6.55994 16.551" stroke="#1F2D27" stroke-linecap="round" stroke-linejoin="round"/>
<path d="M19 17.6113H7" stroke="#1F2D27" stroke-linecap="round" stroke-linejoin="round"/>
<path d="M1 17.6113H4" stroke="#1F2D27" stroke-linecap="round" stroke-linejoin="round"/>
</svg>
