<svg width="23" height="22" viewBox="0 0 23 22" fill="none" xmlns="http://www.w3.org/2000/svg">
<path d="M11.1621 15.9516L12.5949 14.1994L10.7168 11.9027L9.28399 13.6549V14.501H10.4694V15.9516H11.1613H11.1621ZM16.5978 5.0756C16.4664 4.91466 16.3306 4.91961 16.1903 5.09046L11.8666 10.3777C11.7996 10.4424 11.7608 10.531 11.7584 10.6243C11.756 10.7176 11.7904 10.808 11.854 10.8761C11.9859 11.037 12.1217 11.0321 12.2615 10.8612L16.5852 5.57105C16.6522 5.50629 16.691 5.4177 16.6934 5.32443C16.6957 5.23116 16.6614 5.1407 16.5978 5.07263V5.0756ZM17.5861 14.0486V16.9188C17.6142 18.0353 17.244 19.1252 16.5422 19.9925C16.2506 20.3861 15.8717 20.7064 15.4354 20.9279C14.9992 21.1496 14.5175 21.2664 14.0285 21.2693H3.74755C3.25846 21.2667 2.77669 21.15 2.34038 20.9283C1.90408 20.7067 1.52523 20.3863 1.23382 19.9925C0.532993 19.1247 0.163437 18.035 0.191431 16.9188V4.35063C0.163333 3.23414 0.53348 2.14423 1.2353 1.27693C1.5268 0.883547 1.90547 0.563437 2.34144 0.341851C2.77741 0.120264 3.25877 0.0032599 3.74755 6.52883e-05H14.0285C14.5349 -0.00334348 15.0334 0.126785 15.4739 0.377406C15.5356 0.413692 15.5879 0.464097 15.6266 0.524509C15.6652 0.584921 15.689 0.653631 15.6961 0.725036C15.7104 0.801796 15.7078 0.880737 15.6886 0.956403C15.6694 1.03207 15.6341 1.10266 15.585 1.16329L14.9797 1.90608C14.9387 1.96993 14.8765 2.01714 14.804 2.03931C14.7316 2.06148 14.6537 2.05717 14.5841 2.02716C14.4047 1.96826 14.2172 1.93769 14.0285 1.93654H3.74755C3.4759 1.93821 3.20836 2.00324 2.9661 2.12649C2.72385 2.24974 2.51353 2.42782 2.35178 2.64665C1.96134 3.12857 1.75537 3.73442 1.77094 4.35509V16.9232C1.75537 17.5439 1.96134 18.1497 2.35178 18.6317C2.51422 18.8493 2.72485 19.0261 2.96707 19.1481C3.20928 19.2702 3.47646 19.3342 3.74755 19.3351H14.0285C14.3001 19.3334 14.5676 19.2684 14.8099 19.1451C15.0522 19.0219 15.2625 18.8438 15.4242 18.625C15.8147 18.1431 16.0206 17.5372 16.0051 16.9165V15.0157C16.0016 14.8953 16.041 14.7776 16.1162 14.6837L16.9067 13.718C16.9519 13.6486 17.0218 13.599 17.1021 13.5793C17.1824 13.5596 17.2673 13.5712 17.3394 13.6118C17.4199 13.6513 17.4866 13.7143 17.5307 13.7926C17.5749 13.8708 17.5944 13.9605 17.5868 14.0501L17.5861 14.0486ZM16.3992 2.89698L19.9553 7.24754L11.6555 17.4023H8.09936V13.0518L16.3992 2.89698ZM21.8816 4.89139L20.7488 6.28413L17.1904 1.93134L18.3269 0.543793C18.4243 0.412419 18.551 0.305709 18.6969 0.23219C18.8428 0.158672 19.0038 0.120383 19.1671 0.120383C19.3303 0.120383 19.4913 0.158672 19.6372 0.23219C19.7831 0.305709 19.9098 0.412419 20.0072 0.543793L21.8853 2.84052C22.1188 3.13078 22.2415 3.49502 22.2312 3.86781C22.2413 4.24035 22.1187 4.6043 21.8853 4.89436L21.8816 4.89139Z" fill="#1A75FF"/>
</svg>
