<svg width="23" height="23" viewBox="0 0 23 23" fill="none" xmlns="http://www.w3.org/2000/svg">
<path d="M14.0739 11.0329L6.11801 9.63135V19.9878C6.11811 20.1003 6.14036 20.2117 6.1835 20.3156C6.22665 20.4195 6.28983 20.5139 6.36946 20.5934C6.44908 20.6729 6.54358 20.7359 6.64756 20.7789C6.75154 20.8219 6.86297 20.8439 6.97548 20.8438H20.7036C20.8162 20.8441 20.9278 20.8222 21.032 20.7793C21.1361 20.7364 21.2308 20.6734 21.3106 20.5939C21.3903 20.5144 21.4536 20.42 21.4969 20.316C21.5401 20.212 21.5624 20.1004 21.5625 19.9878V16.172L14.0739 11.0329Z" fill="#185C37"/>
<path d="M14.0739 2.15625H6.97548C6.86297 2.15616 6.75154 2.17822 6.64756 2.22119C6.54358 2.26416 6.44908 2.32719 6.36946 2.40668C6.28983 2.48617 6.22665 2.58056 6.1835 2.68447C6.14036 2.78838 6.11811 2.89977 6.11801 3.01228V6.82812L14.0739 11.5L18.2864 12.9016L21.5625 11.5V6.82812L14.0739 2.15625Z" fill="#21A366"/>
<path d="M6.11801 6.82812H14.0739V11.5H6.11801V6.82812Z" fill="#107C41"/>
<path opacity="0.1" d="M11.8119 5.89355H6.11801V17.5732H11.8119C12.0388 17.5721 12.2561 17.4816 12.4168 17.3214C12.5774 17.1612 12.6684 16.9441 12.6701 16.7172V6.74959C12.6684 6.5227 12.5774 6.30563 12.4168 6.1454C12.2561 5.98517 12.0388 5.89468 11.8119 5.89355Z" fill="black"/>
<path opacity="0.2" d="M11.344 6.36084H6.11801V18.0405H11.344C11.5709 18.0394 11.7882 17.9489 11.9489 17.7887C12.1095 17.6285 12.2005 17.4114 12.2022 17.1845V7.21687C12.2005 6.98999 12.1095 6.77291 11.9489 6.61268C11.7882 6.45245 11.5709 6.36197 11.344 6.36084Z" fill="black"/>
<path opacity="0.2" d="M11.344 6.36084H6.11801V17.1062H11.344C11.5709 17.105 11.7882 17.0145 11.9489 16.8543C12.1095 16.6941 12.2005 16.477 12.2022 16.2501V7.21687C12.2005 6.98999 12.1095 6.77291 11.9489 6.61268C11.7882 6.45245 11.5709 6.36197 11.344 6.36084Z" fill="black"/>
<path opacity="0.2" d="M10.8761 6.36084H6.11801V17.1062H10.8761C11.103 17.105 11.3203 17.0145 11.481 16.8543C11.6416 16.6941 11.7326 16.477 11.7343 16.2501V7.21687C11.7326 6.98999 11.6416 6.77291 11.481 6.61268C11.3203 6.45245 11.103 6.36197 10.8761 6.36084Z" fill="black"/>
<path d="M2.29569 6.36084H10.8761C11.1034 6.36065 11.3215 6.45071 11.4824 6.61122C11.6433 6.77174 11.7339 6.98958 11.7343 7.21687V15.7829C11.7339 16.0102 11.6433 16.2281 11.4824 16.3886C11.3215 16.5491 11.1034 16.6392 10.8761 16.639H2.29569C2.18312 16.6392 2.07161 16.6172 1.96755 16.5742C1.86348 16.5313 1.7689 16.4683 1.6892 16.3888C1.6095 16.3093 1.54625 16.2149 1.50306 16.1109C1.45987 16.007 1.43759 15.8955 1.4375 15.7829V7.21687C1.43759 7.1043 1.45987 6.99285 1.50306 6.8889C1.54625 6.78494 1.6095 6.69051 1.6892 6.61101C1.7689 6.53152 1.86348 6.4685 1.96755 6.42558C2.07161 6.38265 2.18312 6.36065 2.29569 6.36084Z" fill="url(#paint0_linear_201_1974)"/>
<path d="M4.09686 14.2837L5.90164 11.4921L4.24852 8.71631H5.57605L6.47808 10.4938C6.56146 10.662 6.62183 10.787 6.64914 10.8704H6.66136C6.7203 10.7353 6.78283 10.6052 6.84824 10.478L7.8128 8.71918H9.03468L7.33914 11.4792L9.0778 14.2859H7.77758L6.73539 12.3374C6.687 12.2536 6.64588 12.1658 6.61249 12.075H6.59524C6.56485 12.1635 6.52433 12.2482 6.47449 12.3273L5.40139 14.2837H4.09686Z" fill="white"/>
<path d="M20.7043 2.15625H14.0739V6.82813H21.5625V3.01228C21.5624 2.89971 21.5401 2.78826 21.4969 2.68431C21.4538 2.58035 21.3905 2.48592 21.3108 2.40642C21.2311 2.32693 21.1365 2.26391 21.0325 2.22099C20.9284 2.17806 20.8169 2.15606 20.7043 2.15625Z" fill="#33C481"/>
<path d="M14.0739 11.5H21.5625V16.1719H14.0739V11.5Z" fill="#107C41"/>
<defs>
<linearGradient id="paint0_linear_201_1974" x1="3.23006" y1="5.68809" x2="9.94175" y2="17.3117" gradientUnits="userSpaceOnUse">
<stop stop-color="#18884F"/>
<stop offset="0.5" stop-color="#117E43"/>
<stop offset="1" stop-color="#0B6631"/>
</linearGradient>
</defs>
</svg>
