<svg width="61" height="61" viewBox="0 0 61 61" fill="none" xmlns="http://www.w3.org/2000/svg">
<circle cx="30.5" cy="30.5" r="30" fill="white" stroke="black"/>
<circle cx="30.5" cy="30.5" r="28.5" fill="#DFFFF2"/>
<path d="M21.6816 48.0728C23.4199 48.0732 25.1192 47.558 26.5647 46.5925C28.0102 45.627 29.1368 44.2545 29.8022 42.6486C30.4676 41.0427 30.6418 39.2756 30.3027 37.5707C29.9637 35.8658 29.1267 34.2997 27.8975 33.0706C26.6684 31.8414 25.1023 31.0044 23.3974 30.6654C21.6925 30.3263 19.9254 30.5005 18.3195 31.1659C16.7136 31.8313 15.3411 32.9579 14.3756 34.4034C13.4101 35.8489 12.8949 37.5482 12.8953 39.2865" stroke="#1F2D27" stroke-linecap="round" stroke-linejoin="round"/>
<path d="M21.6903 48.0824C20.4125 48.0839 19.1498 47.8063 17.9905 47.269L12.5833 48.4174L13.7138 42.9994C13.173 41.8367 12.8935 40.5695 12.895 39.2871" stroke="#1F2D27" stroke-linecap="round" stroke-linejoin="round"/>
<path d="M20.748 30.5498C20.0904 29.0501 19.7506 27.4305 19.75 25.793C19.75 18.5958 26.1964 12.8213 34.0833 12.8213C41.9703 12.8213 48.4167 18.5958 48.4167 25.793C48.4167 30.0464 46.1556 33.791 42.6851 36.1524C42.6869 37.5069 42.6833 39.3326 42.6833 41.2497L37.0593 38.4798C34.8595 38.9028 32.5948 38.8527 30.4158 38.3328" stroke="#1F2D27" stroke-linecap="round" stroke-linejoin="round"/>
</svg>
