<svg width="18" height="18" viewBox="0 0 18 18" fill="none" xmlns="http://www.w3.org/2000/svg">
<path d="M5.55321 7.11519C6.05341 7.61539 6.33441 8.2938 6.33441 9.00119C6.33441 9.70858 6.05341 10.387 5.55321 10.8872C5.05301 11.3874 4.37459 11.6684 3.66721 11.6684C2.95982 11.6684 2.28141 11.3874 1.78121 10.8872C1.28101 10.387 1 9.70858 1 9.00119C1 8.2938 1.28101 7.61539 1.78121 7.11519C2.28141 6.61499 2.95982 6.33398 3.66721 6.33398C4.37459 6.33398 5.05301 6.61499 5.55321 7.11519Z" stroke="#FFA807" stroke-linecap="round" stroke-linejoin="round"/>
<path d="M16.2192 1.78241C16.7194 2.28261 17.0004 2.96103 17.0004 3.66841C17.0004 4.3758 16.7194 5.05422 16.2192 5.55441C15.719 6.05461 15.0406 6.33562 14.3332 6.33562C13.6258 6.33562 12.9474 6.05461 12.4472 5.55441C11.9469 5.05408 11.6658 4.37549 11.6658 3.66791C11.6658 2.96034 11.9469 2.28174 12.4472 1.78141C12.9475 1.28108 13.6261 1 14.3337 1C15.0413 1 15.7199 1.28108 16.2202 1.78141" stroke="#FFA807" stroke-linecap="round" stroke-linejoin="round"/>
<path d="M16.2192 12.4482C16.4668 12.6959 16.6633 12.9899 16.7973 13.3135C16.9314 13.6371 17.0004 13.9839 17.0004 14.3342C17.0004 14.6845 16.9314 15.0313 16.7973 15.3549C16.6633 15.6785 16.4668 15.9725 16.2192 16.2202C15.9715 16.4679 15.6775 16.6643 15.3539 16.7984C15.0303 16.9324 14.6834 17.0014 14.3332 17.0014C13.9829 17.0014 13.6361 16.9324 13.3125 16.7984C12.9889 16.6643 12.6948 16.4679 12.4472 16.2202C11.947 15.72 11.666 15.0416 11.666 14.3342C11.666 13.6268 11.947 12.9484 12.4472 12.4482C12.9474 11.948 13.6258 11.667 14.3332 11.667C15.0405 11.667 15.719 11.948 16.2192 12.4482" stroke="#FFA807" stroke-linecap="round" stroke-linejoin="round"/>
<path d="M6.04016 7.81156L11.9602 4.85156" stroke="#FFA807" stroke-linecap="round" stroke-linejoin="round"/>
<path d="M6.04016 10.1914L11.9602 13.1514" stroke="#FFA807" stroke-linecap="round" stroke-linejoin="round"/>
</svg>
