<svg width="23" height="23" viewBox="0 0 23 23" fill="none" xmlns="http://www.w3.org/2000/svg">
<path d="M20.7043 2.15625H6.97548C6.86297 2.15616 6.75154 2.17822 6.64756 2.22119C6.54358 2.26416 6.44908 2.32719 6.36946 2.40668C6.28983 2.48617 6.22665 2.58056 6.1835 2.68447C6.14036 2.78838 6.11811 2.89977 6.11801 3.01228V6.82813L14.0739 9.16406L21.5625 6.82813V3.01228C21.5624 2.89971 21.5401 2.78826 21.497 2.68431C21.4538 2.58035 21.3905 2.48592 21.3108 2.40642C21.2311 2.32693 21.1365 2.26391 21.0325 2.22099C20.9284 2.17806 20.8169 2.15606 20.7043 2.15625Z" fill="#41A5EE"/>
<path d="M21.5625 6.82812H6.11801V11.5L14.0739 12.9016L21.5625 11.5V6.82812Z" fill="#2B7CD3"/>
<path d="M6.11801 11.5V16.1719L13.6059 17.1062L21.5625 16.1719V11.5H6.11801Z" fill="#185ABD"/>
<path d="M6.97548 20.8437H20.7036C20.8162 20.844 20.9278 20.8221 21.032 20.7792C21.1361 20.7363 21.2308 20.6733 21.3106 20.5938C21.3903 20.5143 21.4536 20.4199 21.4969 20.3159C21.5401 20.2119 21.5624 20.1003 21.5625 19.9877V16.1719H6.11801V19.9877C6.11811 20.1002 6.14036 20.2116 6.1835 20.3155C6.22665 20.4194 6.28983 20.5138 6.36946 20.5933C6.44908 20.6728 6.54358 20.7358 6.64756 20.7788C6.75154 20.8218 6.86297 20.8438 6.97548 20.8437Z" fill="#103F91"/>
<path opacity="0.1" d="M11.8119 5.89355H6.11801V17.5732H11.8119C12.0388 17.5721 12.2561 17.4816 12.4168 17.3214C12.5774 17.1612 12.6684 16.9441 12.6701 16.7172V6.74959C12.6684 6.5227 12.5774 6.30563 12.4168 6.1454C12.2561 5.98517 12.0388 5.89468 11.8119 5.89355Z" fill="black"/>
<path opacity="0.2" d="M11.344 6.36084H6.11801V18.0405H11.344C11.5709 18.0394 11.7882 17.9489 11.9489 17.7887C12.1095 17.6285 12.2005 17.4114 12.2022 17.1845V7.21687C12.2005 6.98999 12.1095 6.77291 11.9489 6.61268C11.7882 6.45245 11.5709 6.36197 11.344 6.36084Z" fill="black"/>
<path opacity="0.2" d="M11.344 6.36084H6.11801V17.1062H11.344C11.5709 17.105 11.7882 17.0145 11.9489 16.8543C12.1095 16.6941 12.2005 16.477 12.2022 16.2501V7.21687C12.2005 6.98999 12.1095 6.77291 11.9489 6.61268C11.7882 6.45245 11.5709 6.36197 11.344 6.36084Z" fill="black"/>
<path opacity="0.2" d="M10.8761 6.36084H6.11801V17.1062H10.8761C11.103 17.105 11.3203 17.0145 11.481 16.8543C11.6416 16.6941 11.7326 16.477 11.7343 16.2501V7.21687C11.7326 6.98999 11.6416 6.77291 11.481 6.61268C11.3203 6.45245 11.103 6.36197 10.8761 6.36084Z" fill="black"/>
<path d="M2.29569 6.36084H10.8761C11.1034 6.36065 11.3215 6.45071 11.4824 6.61122C11.6433 6.77174 11.7339 6.98958 11.7343 7.21687V15.7829C11.7339 16.0102 11.6433 16.2281 11.4824 16.3886C11.3215 16.5491 11.1034 16.6392 10.8761 16.639H2.29569C2.18312 16.6392 2.07161 16.6172 1.96755 16.5742C1.86348 16.5313 1.7689 16.4683 1.6892 16.3888C1.6095 16.3093 1.54625 16.2149 1.50306 16.1109C1.45987 16.007 1.43759 15.8955 1.4375 15.7829V7.21687C1.43759 7.1043 1.45987 6.99285 1.50306 6.8889C1.54625 6.78494 1.6095 6.69051 1.6892 6.61101C1.7689 6.53152 1.86348 6.4685 1.96755 6.42558C2.07161 6.38265 2.18312 6.36065 2.29569 6.36084Z" fill="url(#paint0_linear_201_1951)"/>
<path d="M4.95938 12.9291C4.97591 13.0613 4.98741 13.1763 4.99244 13.2748H5.01257C5.01975 13.1813 5.03557 13.0685 5.05929 12.937C5.083 12.8054 5.10385 12.694 5.12325 12.6027L6.02529 8.71646H7.19254L8.12691 12.5445C8.18133 12.7813 8.22023 13.0214 8.24335 13.2633H8.25916C8.27633 13.0278 8.30874 12.7937 8.35619 12.5625L9.10297 8.71143H10.1646L8.85357 14.2803H7.61229L6.72319 10.596C6.69732 10.4896 6.66809 10.3511 6.6355 10.1806C6.60292 10.01 6.5828 9.88538 6.57513 9.8068H6.56003C6.54997 9.89736 6.52985 10.0318 6.49966 10.21C6.46947 10.389 6.44575 10.5205 6.42779 10.6068L5.59188 14.2825H4.32975L3.01157 8.71646H4.08969L4.9026 12.6106C4.92686 12.7158 4.94581 12.822 4.95938 12.9291Z" fill="white"/>
<defs>
<linearGradient id="paint0_linear_201_1951" x1="3.23006" y1="5.68809" x2="9.94175" y2="17.3117" gradientUnits="userSpaceOnUse">
<stop stop-color="#2368C4"/>
<stop offset="0.5" stop-color="#1A5DBE"/>
<stop offset="1" stop-color="#1146AC"/>
</linearGradient>
</defs>
</svg>
