<svg width="21" height="22" viewBox="0 0 21 22" fill="none" xmlns="http://www.w3.org/2000/svg">
<g clip-path="url(#clip0_55:2580)">
<path d="M19.0808 4.88046H1.51305C1.34686 4.88117 1.18239 4.84795 1.03045 4.78296C0.878508 4.71798 0.742533 4.62271 0.631456 4.50341C0.509649 4.3818 0.414004 4.23811 0.350041 4.08064C0.286077 3.92317 0.255061 3.75503 0.258783 3.58593C0.251784 3.24311 0.381626 2.91082 0.621438 2.65782C0.731632 2.53427 0.868608 2.4356 1.02268 2.36877C1.17675 2.30195 1.34415 2.26861 1.51305 2.2711H7.78838C7.78242 1.93135 7.9123 1.60243 8.15104 1.35266C8.26148 1.22914 8.39864 1.1305 8.55286 1.06368C8.70709 0.996865 8.87462 0.963503 9.04365 0.965945H11.5482C11.717 0.963645 11.8844 0.997076 12.0384 1.06389C12.1925 1.1307 12.3295 1.22927 12.4398 1.35266C12.6783 1.60219 12.8081 1.93071 12.8024 2.27014H19.0818C19.2489 2.26982 19.4141 2.30419 19.5662 2.37092C19.7183 2.43764 19.8538 2.53516 19.9634 2.65685C20.2085 2.90695 20.3423 3.2398 20.3361 3.584C20.3399 3.75311 20.3089 3.92128 20.245 4.07876C20.181 4.23625 20.0853 4.37993 19.9634 4.50148C19.8522 4.62063 19.7162 4.7158 19.5643 4.78078C19.4124 4.84575 19.2479 4.87905 19.0818 4.87852L19.0808 4.88046ZM19.0808 19.2314C19.0952 19.9157 18.8312 20.5783 18.3455 21.077C18.1241 21.3201 17.851 21.5143 17.5449 21.6463C17.2387 21.7782 16.9066 21.8449 16.5713 21.8417H4.02258C3.68698 21.8445 3.35468 21.7775 3.04834 21.6452C2.742 21.5129 2.46881 21.3185 2.24738 21.0751C1.76096 20.5767 1.49688 19.9139 1.51205 19.2295V6.18658H19.0798V19.2314H19.0808ZM6.53212 10.0982C6.53659 9.75822 6.40322 9.43001 6.16044 9.18361C6.04929 9.06118 5.91213 8.96327 5.75828 8.89654C5.60443 8.82982 5.4375 8.79583 5.26883 8.7969C5.10152 8.79523 4.93587 8.82899 4.78355 8.8958C4.63123 8.96262 4.49595 9.06087 4.38724 9.18361C4.14901 9.4333 4.01919 9.76172 4.02459 10.1011V17.932C4.01532 18.275 4.14549 18.6077 4.38724 18.8592C4.49753 18.9794 4.63336 19.0753 4.78548 19.1404C4.9376 19.2055 5.10245 19.2381 5.26883 19.2362C5.43659 19.2376 5.60275 19.2047 5.75641 19.1397C5.91007 19.0747 6.04776 18.9791 6.16044 18.8592C6.28301 18.7361 6.37906 18.5908 6.44303 18.4317C6.507 18.2725 6.53762 18.1027 6.53312 17.932V10.1011L6.53212 10.0982ZM11.5512 10.0982C11.5562 9.75708 11.4224 9.42768 11.1785 9.18071C11.0674 9.05828 10.9302 8.96037 10.7763 8.89364C10.6225 8.82691 10.4556 8.79293 10.2869 8.794C10.1196 8.79233 9.95393 8.82609 9.80161 8.8929C9.64929 8.95972 9.51401 9.05796 9.40531 9.18071C9.16707 9.4304 9.03726 9.75882 9.04265 10.0982V17.9291C9.03339 18.272 9.16356 18.6048 9.40531 18.8563C9.5156 18.9765 9.65142 19.0724 9.80354 19.1375C9.95567 19.2026 10.1205 19.2352 10.2869 19.2333C10.4547 19.2347 10.6208 19.2018 10.7745 19.1368C10.9281 19.0718 11.0658 18.9762 11.1785 18.8563C11.3011 18.7332 11.3971 18.5879 11.4611 18.4288C11.5251 18.2696 11.5557 18.0998 11.5512 17.9291V10.0982ZM16.5702 10.0982C16.5752 9.75708 16.4414 9.42768 16.1976 9.18071C16.0864 9.05828 15.9493 8.96037 15.7954 8.89364C15.6416 8.82691 15.4746 8.79293 15.306 8.794C15.1387 8.79233 14.973 8.82609 14.8207 8.8929C14.6684 8.95972 14.5331 9.05796 14.4244 9.18071C14.1861 9.4304 14.0563 9.75882 14.0617 10.0982V17.9291C14.0525 18.272 14.1826 18.6048 14.4244 18.8563C14.5347 18.9765 14.6705 19.0724 14.8226 19.1375C14.9747 19.2026 15.1396 19.2352 15.306 19.2333C15.4737 19.2347 15.6399 19.2018 15.7935 19.1368C15.9472 19.0718 16.0849 18.9762 16.1976 18.8563C16.3201 18.7332 16.4162 18.5879 16.4802 18.4288C16.5441 18.2696 16.5747 18.0998 16.5702 17.9291V10.0982Z" fill="#F84F6B"/>
</g>
<defs>
<clipPath id="clip0_55:2580">
<rect width="20.0773" height="20.8738" fill="white" transform="translate(0.258789 0.966797)"/>
</clipPath>
</defs>
</svg>
