<svg width="77" height="23" viewBox="0 0 77 23" fill="none" xmlns="http://www.w3.org/2000/svg">
<rect width="77" height="23" rx="11.5" fill="#2ECC71"/>
<path d="M20.532 16H18.816L18.144 14.116H14.4L13.74 16H12.072L15.324 7.456H17.22L20.532 16ZM15.216 11.812L14.892 12.736H17.652L17.316 11.812C17.036 11.1 16.684 10.124 16.26 8.884C15.924 9.876 15.576 10.852 15.216 11.812ZM24.587 9.664C25.435 9.664 26.111 9.956 26.615 10.54C27.111 11.132 27.359 11.92 27.359 12.904C27.359 13.88 27.111 14.664 26.615 15.256C26.111 15.848 25.435 16.144 24.587 16.144C23.747 16.144 23.107 15.828 22.667 15.196V18.352H21.155V9.808H22.607V10.696C23.055 10.008 23.715 9.664 24.587 9.664ZM23.063 14.38C23.335 14.724 23.723 14.896 24.227 14.896C24.723 14.896 25.115 14.716 25.403 14.356C25.683 14.004 25.823 13.504 25.823 12.856C25.823 12.224 25.683 11.744 25.403 11.416C25.131 11.08 24.739 10.912 24.227 10.912C23.723 10.912 23.331 11.084 23.051 11.428C22.771 11.772 22.631 12.264 22.631 12.904C22.631 13.552 22.775 14.044 23.063 14.38ZM31.6154 9.712C31.7514 9.712 31.8754 9.72 31.9874 9.736V11.128H31.6034C31.0274 11.128 30.5834 11.276 30.2714 11.572C29.9674 11.86 29.8154 12.288 29.8154 12.856V16H28.3034V9.808H29.7674V10.912C30.1114 10.112 30.7274 9.712 31.6154 9.712ZM38.5462 12.904C38.5462 13.88 38.2582 14.664 37.6822 15.256C37.1062 15.848 36.3462 16.144 35.4022 16.144C34.4582 16.144 33.6982 15.848 33.1222 15.256C32.5382 14.672 32.2462 13.888 32.2462 12.904C32.2462 11.92 32.5382 11.136 33.1222 10.552C33.6982 9.96 34.4582 9.664 35.4022 9.664C36.3462 9.664 37.1062 9.956 37.6822 10.54C38.2582 11.124 38.5462 11.912 38.5462 12.904ZM34.2142 14.38C34.5022 14.724 34.8982 14.896 35.4022 14.896C35.9062 14.896 36.2982 14.724 36.5782 14.38C36.8662 14.028 37.0102 13.536 37.0102 12.904C37.0102 12.272 36.8662 11.784 36.5782 11.44C36.2982 11.088 35.9062 10.912 35.4022 10.912C34.8982 10.912 34.5022 11.084 34.2142 11.428C33.9342 11.772 33.7942 12.264 33.7942 12.904C33.7942 13.544 33.9342 14.036 34.2142 14.38ZM42.7664 11.464L43.3664 9.808H44.9384L42.6344 16H40.8944L38.6024 9.808H40.2224L40.8224 11.476C41.1024 12.348 41.4264 13.4 41.7944 14.632C42.0904 13.64 42.4144 12.584 42.7664 11.464ZM50.8519 16H49.3399C49.2679 15.872 49.2119 15.62 49.1719 15.244C48.7559 15.844 48.0919 16.144 47.1799 16.144C46.4999 16.144 45.9559 15.98 45.5479 15.652C45.1479 15.324 44.9479 14.868 44.9479 14.284C44.9479 13.156 45.7399 12.512 47.3239 12.352L48.2599 12.268C48.5719 12.228 48.7959 12.156 48.9319 12.052C49.0679 11.94 49.1359 11.776 49.1359 11.56C49.1359 11.296 49.0479 11.104 48.8719 10.984C48.7039 10.856 48.4159 10.792 48.0079 10.792C47.5679 10.792 47.2519 10.868 47.0599 11.02C46.8679 11.164 46.7559 11.416 46.7239 11.776H45.2359C45.3239 10.368 46.2519 9.664 48.0199 9.664C49.7399 9.664 50.5999 10.284 50.5999 11.524V14.824C50.5999 15.368 50.6839 15.76 50.8519 16ZM47.5399 15.064C48.0119 15.064 48.3959 14.936 48.6919 14.68C48.9879 14.416 49.1359 14.04 49.1359 13.552V12.988C48.9919 13.116 48.7559 13.2 48.4279 13.24L47.6119 13.336C47.2119 13.384 46.9239 13.48 46.7479 13.624C46.5799 13.76 46.4959 13.96 46.4959 14.224C46.4959 14.488 46.5839 14.696 46.7599 14.848C46.9439 14.992 47.2039 15.064 47.5399 15.064ZM56.11 10.612V7.456H57.622V16H56.158V15.136C55.702 15.808 55.05 16.144 54.202 16.144C53.346 16.144 52.67 15.848 52.174 15.256C51.67 14.664 51.418 13.88 51.418 12.904C51.418 11.912 51.67 11.124 52.174 10.54C52.662 9.956 53.338 9.664 54.202 9.664C55.034 9.664 55.67 9.98 56.11 10.612ZM52.966 12.952C52.966 13.592 53.106 14.076 53.386 14.404C53.666 14.732 54.054 14.896 54.55 14.896C55.046 14.896 55.438 14.724 55.726 14.38C56.006 14.036 56.146 13.544 56.146 12.904C56.146 12.264 56.006 11.772 55.726 11.428C55.446 11.084 55.054 10.912 54.55 10.912C54.062 10.912 53.674 11.092 53.386 11.452C53.106 11.812 52.966 12.312 52.966 12.952ZM64.8665 12.904C64.8665 13.88 64.5785 14.664 64.0025 15.256C63.4265 15.848 62.6665 16.144 61.7225 16.144C60.7785 16.144 60.0185 15.848 59.4425 15.256C58.8585 14.672 58.5665 13.888 58.5665 12.904C58.5665 11.92 58.8585 11.136 59.4425 10.552C60.0185 9.96 60.7785 9.664 61.7225 9.664C62.6665 9.664 63.4265 9.956 64.0025 10.54C64.5785 11.124 64.8665 11.912 64.8665 12.904ZM60.5345 14.38C60.8225 14.724 61.2185 14.896 61.7225 14.896C62.2265 14.896 62.6185 14.724 62.8985 14.38C63.1865 14.028 63.3305 13.536 63.3305 12.904C63.3305 12.272 63.1865 11.784 62.8985 11.44C62.6185 11.088 62.2265 10.912 61.7225 10.912C61.2185 10.912 60.8225 11.084 60.5345 11.428C60.2545 11.772 60.1145 12.264 60.1145 12.904C60.1145 13.544 60.2545 14.036 60.5345 14.38Z" fill="white"/>
</svg>
