<svg width="113" height="23" viewBox="0 0 113 23" fill="none" xmlns="http://www.w3.org/2000/svg">
<rect width="113" height="23" rx="11.5" fill="#F15858"/>
<path d="M16.4304 7.456H19.6944C21.0624 7.456 22.1184 7.836 22.8624 8.596C23.6064 9.364 23.9784 10.408 23.9784 11.728C23.9784 13.048 23.6064 14.088 22.8624 14.848C22.1184 15.616 21.0624 16 19.6944 16H16.4304V7.456ZM18.0504 14.608H19.6704C20.5104 14.608 21.1584 14.364 21.6144 13.876C22.0704 13.38 22.2984 12.664 22.2984 11.728C22.2984 10.792 22.0704 10.08 21.6144 9.592C21.1584 9.096 20.5104 8.848 19.6704 8.848H18.0504V14.608ZM30.8388 13.012V13.372H26.2068C26.2628 13.9 26.4268 14.3 26.6988 14.572C26.9788 14.836 27.3508 14.968 27.8148 14.968C28.5028 14.968 28.9748 14.672 29.2308 14.08H30.6828C30.5228 14.712 30.1868 15.216 29.6748 15.592C29.1628 15.96 28.5388 16.144 27.8028 16.144C26.8828 16.144 26.1388 15.848 25.5708 15.256C25.0028 14.664 24.7188 13.88 24.7188 12.904C24.7188 11.928 24.9988 11.144 25.5588 10.552C26.1268 9.96 26.8668 9.664 27.7788 9.664C28.7148 9.664 29.4588 9.972 30.0108 10.588C30.5628 11.204 30.8388 12.012 30.8388 13.012ZM27.7668 10.84C26.8788 10.84 26.3628 11.332 26.2188 12.316H29.3268C29.2628 11.86 29.0948 11.5 28.8228 11.236C28.5508 10.972 28.1988 10.84 27.7668 10.84ZM34.2394 16.168C32.4314 16.168 31.4874 15.456 31.4074 14.032H32.8834C32.9234 14.416 33.0474 14.688 33.2554 14.848C33.4714 15.008 33.8074 15.088 34.2634 15.088C35.0794 15.088 35.4874 14.84 35.4874 14.344C35.4874 14.12 35.3994 13.948 35.2234 13.828C35.0474 13.708 34.7314 13.608 34.2754 13.528L33.5674 13.408C32.2154 13.184 31.5394 12.56 31.5394 11.536C31.5394 10.952 31.7634 10.496 32.2114 10.168C32.6594 9.832 33.2914 9.664 34.1074 9.664C35.8754 9.664 36.7874 10.364 36.8434 11.764H35.4154C35.3994 11.396 35.2834 11.136 35.0674 10.984C34.8514 10.824 34.5314 10.744 34.1074 10.744C33.3874 10.744 33.0274 10.984 33.0274 11.464C33.0274 11.672 33.1074 11.836 33.2674 11.956C33.4274 12.068 33.6914 12.156 34.0594 12.22L34.8394 12.34C35.5914 12.476 36.1354 12.692 36.4714 12.988C36.8154 13.284 36.9874 13.696 36.9874 14.224C36.9874 14.848 36.7474 15.328 36.2674 15.664C35.7874 16 35.1114 16.168 34.2394 16.168ZM40.5757 16.144C39.6637 16.144 38.9237 15.848 38.3557 15.256C37.7957 14.672 37.5157 13.888 37.5157 12.904C37.5157 11.912 37.7957 11.124 38.3557 10.54C38.9077 9.956 39.6477 9.664 40.5757 9.664C41.3837 9.664 42.0437 9.88 42.5557 10.312C43.0677 10.736 43.3677 11.312 43.4557 12.04H41.9437C41.8717 11.68 41.7157 11.404 41.4757 11.212C41.2357 11.02 40.9357 10.924 40.5757 10.924C40.1037 10.924 39.7317 11.096 39.4597 11.44C39.1957 11.776 39.0637 12.264 39.0637 12.904C39.0637 13.544 39.1997 14.036 39.4717 14.38C39.7437 14.716 40.1117 14.884 40.5757 14.884C40.9437 14.884 41.2517 14.784 41.4997 14.584C41.7557 14.376 41.9117 14.08 41.9677 13.696H43.4797C43.3997 14.44 43.0957 15.036 42.5677 15.484C42.0397 15.924 41.3757 16.144 40.5757 16.144ZM50.3548 12.904C50.3548 13.88 50.0668 14.664 49.4908 15.256C48.9148 15.848 48.1548 16.144 47.2108 16.144C46.2668 16.144 45.5068 15.848 44.9308 15.256C44.3468 14.672 44.0548 13.888 44.0548 12.904C44.0548 11.92 44.3468 11.136 44.9308 10.552C45.5068 9.96 46.2668 9.664 47.2108 9.664C48.1548 9.664 48.9148 9.956 49.4908 10.54C50.0668 11.124 50.3548 11.912 50.3548 12.904ZM46.0228 14.38C46.3108 14.724 46.7068 14.896 47.2108 14.896C47.7148 14.896 48.1068 14.724 48.3868 14.38C48.6748 14.028 48.8188 13.536 48.8188 12.904C48.8188 12.272 48.6748 11.784 48.3868 11.44C48.1068 11.088 47.7148 10.912 47.2108 10.912C46.7068 10.912 46.3108 11.084 46.0228 11.428C45.7428 11.772 45.6028 12.264 45.6028 12.904C45.6028 13.544 45.7428 14.036 46.0228 14.38ZM54.6994 9.664C55.3714 9.664 55.8994 9.86 56.2834 10.252C56.6754 10.636 56.8714 11.184 56.8714 11.896V16H55.3594V12.148C55.3594 11.364 54.9714 10.972 54.1954 10.972C53.8114 10.972 53.4834 11.112 53.2114 11.392C52.9474 11.664 52.8154 12.044 52.8154 12.532V16H51.3034V9.808H52.7674V10.696C53.2394 10.008 53.8834 9.664 54.6994 9.664ZM61.1173 9.808V10.96H59.8933V14.308C59.8933 14.508 59.9453 14.648 60.0493 14.728C60.1613 14.808 60.3453 14.848 60.6013 14.848H61.1173V16C60.7893 16.032 60.5253 16.048 60.3253 16.048C59.6533 16.048 59.1613 15.924 58.8493 15.676C58.5453 15.42 58.3933 15.016 58.3933 14.464V10.96H57.4333V9.808H58.3933V8.008H59.8933V9.808H61.1173ZM63.5026 9.004H62.0146V7.588H63.5026V9.004ZM63.5146 16H62.0026V9.808H63.5146V16ZM68.1291 9.664C68.8011 9.664 69.3291 9.86 69.7131 10.252C70.1051 10.636 70.3011 11.184 70.3011 11.896V16H68.7891V12.148C68.7891 11.364 68.4011 10.972 67.6251 10.972C67.2411 10.972 66.9131 11.112 66.6411 11.392C66.3771 11.664 66.2451 12.044 66.2451 12.532V16H64.7331V9.808H66.1971V10.696C66.6691 10.008 67.3131 9.664 68.1291 9.664ZM75.3985 13.276V9.808H76.9105V16H75.4465V15.1C74.9745 15.796 74.3265 16.144 73.5025 16.144C72.8385 16.144 72.3105 15.952 71.9185 15.568C71.5345 15.176 71.3425 14.624 71.3425 13.912V9.808H72.8545V13.66C72.8545 14.444 73.2425 14.836 74.0185 14.836C74.4025 14.836 74.7265 14.7 74.9905 14.428C75.2625 14.148 75.3985 13.764 75.3985 13.276ZM83.7073 16H82.1953C82.1233 15.872 82.0673 15.62 82.0273 15.244C81.6113 15.844 80.9473 16.144 80.0353 16.144C79.3553 16.144 78.8113 15.98 78.4033 15.652C78.0033 15.324 77.8033 14.868 77.8033 14.284C77.8033 13.156 78.5953 12.512 80.1793 12.352L81.1153 12.268C81.4273 12.228 81.6513 12.156 81.7873 12.052C81.9233 11.94 81.9913 11.776 81.9913 11.56C81.9913 11.296 81.9033 11.104 81.7273 10.984C81.5593 10.856 81.2713 10.792 80.8633 10.792C80.4233 10.792 80.1073 10.868 79.9153 11.02C79.7233 11.164 79.6113 11.416 79.5793 11.776H78.0913C78.1793 10.368 79.1073 9.664 80.8753 9.664C82.5953 9.664 83.4553 10.284 83.4553 11.524V14.824C83.4553 15.368 83.5393 15.76 83.7073 16ZM80.3953 15.064C80.8673 15.064 81.2513 14.936 81.5473 14.68C81.8433 14.416 81.9913 14.04 81.9913 13.552V12.988C81.8473 13.116 81.6113 13.2 81.2833 13.24L80.4673 13.336C80.0673 13.384 79.7793 13.48 79.6033 13.624C79.4353 13.76 79.3513 13.96 79.3513 14.224C79.3513 14.488 79.4393 14.696 79.6153 14.848C79.7993 14.992 80.0593 15.064 80.3953 15.064ZM88.9655 10.612V7.456H90.4775V16H89.0135V15.136C88.5575 15.808 87.9055 16.144 87.0575 16.144C86.2015 16.144 85.5255 15.848 85.0295 15.256C84.5255 14.664 84.2735 13.88 84.2735 12.904C84.2735 11.912 84.5255 11.124 85.0295 10.54C85.5175 9.956 86.1935 9.664 87.0575 9.664C87.8895 9.664 88.5255 9.98 88.9655 10.612ZM85.8215 12.952C85.8215 13.592 85.9615 14.076 86.2415 14.404C86.5215 14.732 86.9095 14.896 87.4055 14.896C87.9015 14.896 88.2935 14.724 88.5815 14.38C88.8615 14.036 89.0015 13.544 89.0015 12.904C89.0015 12.264 88.8615 11.772 88.5815 11.428C88.3015 11.084 87.9095 10.912 87.4055 10.912C86.9175 10.912 86.5295 11.092 86.2415 11.452C85.9615 11.812 85.8215 12.312 85.8215 12.952ZM97.7219 12.904C97.7219 13.88 97.4339 14.664 96.8579 15.256C96.2819 15.848 95.5219 16.144 94.5779 16.144C93.6339 16.144 92.8739 15.848 92.2979 15.256C91.7139 14.672 91.4219 13.888 91.4219 12.904C91.4219 11.92 91.7139 11.136 92.2979 10.552C92.8739 9.96 93.6339 9.664 94.5779 9.664C95.5219 9.664 96.2819 9.956 96.8579 10.54C97.4339 11.124 97.7219 11.912 97.7219 12.904ZM93.3899 14.38C93.6779 14.724 94.0739 14.896 94.5779 14.896C95.0819 14.896 95.4739 14.724 95.7539 14.38C96.0419 14.028 96.1859 13.536 96.1859 12.904C96.1859 12.272 96.0419 11.784 95.7539 11.44C95.4739 11.088 95.0819 10.912 94.5779 10.912C94.0739 10.912 93.6779 11.084 93.3899 11.428C93.1099 11.772 92.9699 12.264 92.9699 12.904C92.9699 13.544 93.1099 14.036 93.3899 14.38Z" fill="white"/>
</svg>
