<svg width="79" height="23" viewBox="0 0 79 23" fill="none" xmlns="http://www.w3.org/2000/svg">
<rect width="79" height="23" rx="11.5" fill="#FFBB38"/>
<path d="M18.392 13.732L18.464 15.004C18.472 15.412 18.56 15.744 18.728 16H17.06C16.916 15.76 16.84 15.42 16.832 14.98L16.796 14.044C16.772 13.524 16.652 13.164 16.436 12.964C16.228 12.756 15.892 12.652 15.428 12.652H13.316V16H11.696V7.456H15.572C16.524 7.456 17.264 7.672 17.792 8.104C18.32 8.536 18.584 9.124 18.584 9.868C18.584 10.892 18.108 11.572 17.156 11.908C17.588 12.044 17.896 12.26 18.08 12.556C18.272 12.844 18.376 13.236 18.392 13.732ZM13.316 8.788V11.38H15.476C15.932 11.38 16.284 11.268 16.532 11.044C16.788 10.812 16.916 10.48 16.916 10.048C16.916 9.64 16.784 9.328 16.52 9.112C16.264 8.896 15.896 8.788 15.416 8.788H13.316ZM25.4248 13.012V13.372H20.7928C20.8488 13.9 21.0128 14.3 21.2848 14.572C21.5648 14.836 21.9368 14.968 22.4008 14.968C23.0888 14.968 23.5608 14.672 23.8168 14.08H25.2688C25.1088 14.712 24.7728 15.216 24.2608 15.592C23.7488 15.96 23.1248 16.144 22.3888 16.144C21.4688 16.144 20.7248 15.848 20.1568 15.256C19.5888 14.664 19.3048 13.88 19.3048 12.904C19.3048 11.928 19.5848 11.144 20.1448 10.552C20.7128 9.96 21.4528 9.664 22.3648 9.664C23.3008 9.664 24.0448 9.972 24.5968 10.588C25.1488 11.204 25.4248 12.012 25.4248 13.012ZM22.3528 10.84C21.4648 10.84 20.9488 11.332 20.8048 12.316H23.9128C23.8488 11.86 23.6808 11.5 23.4088 11.236C23.1368 10.972 22.7848 10.84 22.3528 10.84ZM29.6844 11.464L30.2844 9.808H31.8564L29.5524 16H27.8124L25.5204 9.808H27.1404L27.7404 11.476C28.0204 12.348 28.3444 13.4 28.7124 14.632C29.0084 13.64 29.3324 12.584 29.6844 11.464ZM33.9479 9.004H32.4599V7.588H33.9479V9.004ZM33.9599 16H32.4479V9.808H33.9599V16ZM37.6144 16.168C35.8064 16.168 34.8624 15.456 34.7824 14.032H36.2584C36.2984 14.416 36.4224 14.688 36.6304 14.848C36.8464 15.008 37.1824 15.088 37.6384 15.088C38.4544 15.088 38.8624 14.84 38.8624 14.344C38.8624 14.12 38.7744 13.948 38.5984 13.828C38.4224 13.708 38.1064 13.608 37.6504 13.528L36.9424 13.408C35.5904 13.184 34.9144 12.56 34.9144 11.536C34.9144 10.952 35.1384 10.496 35.5864 10.168C36.0344 9.832 36.6664 9.664 37.4824 9.664C39.2504 9.664 40.1624 10.364 40.2184 11.764H38.7904C38.7744 11.396 38.6584 11.136 38.4424 10.984C38.2264 10.824 37.9064 10.744 37.4824 10.744C36.7624 10.744 36.4024 10.984 36.4024 11.464C36.4024 11.672 36.4824 11.836 36.6424 11.956C36.8024 12.068 37.0664 12.156 37.4344 12.22L38.2144 12.34C38.9664 12.476 39.5104 12.692 39.8464 12.988C40.1904 13.284 40.3624 13.696 40.3624 14.224C40.3624 14.848 40.1224 15.328 39.6424 15.664C39.1624 16 38.4864 16.168 37.6144 16.168ZM46.887 16H45.375C45.303 15.872 45.247 15.62 45.207 15.244C44.791 15.844 44.127 16.144 43.215 16.144C42.535 16.144 41.991 15.98 41.583 15.652C41.183 15.324 40.983 14.868 40.983 14.284C40.983 13.156 41.775 12.512 43.359 12.352L44.295 12.268C44.607 12.228 44.831 12.156 44.967 12.052C45.103 11.94 45.171 11.776 45.171 11.56C45.171 11.296 45.083 11.104 44.907 10.984C44.739 10.856 44.451 10.792 44.043 10.792C43.603 10.792 43.287 10.868 43.095 11.02C42.903 11.164 42.791 11.416 42.759 11.776H41.271C41.359 10.368 42.287 9.664 44.055 9.664C45.775 9.664 46.635 10.284 46.635 11.524V14.824C46.635 15.368 46.719 15.76 46.887 16ZM43.575 15.064C44.047 15.064 44.431 14.936 44.727 14.68C45.023 14.416 45.171 14.04 45.171 13.552V12.988C45.027 13.116 44.791 13.2 44.463 13.24L43.647 13.336C43.247 13.384 42.959 13.48 42.783 13.624C42.615 13.76 42.531 13.96 42.531 14.224C42.531 14.488 42.619 14.696 42.795 14.848C42.979 14.992 43.239 15.064 43.575 15.064ZM51.1838 9.664C51.8558 9.664 52.3838 9.86 52.7678 10.252C53.1598 10.636 53.3558 11.184 53.3558 11.896V16H51.8438V12.148C51.8438 11.364 51.4558 10.972 50.6798 10.972C50.2958 10.972 49.9678 11.112 49.6958 11.392C49.4318 11.664 49.2998 12.044 49.2998 12.532V16H47.7878V9.808H49.2518V10.696C49.7238 10.008 50.3678 9.664 51.1838 9.664ZM59.0007 10.612V7.456H60.5127V16H59.0487V15.136C58.5927 15.808 57.9407 16.144 57.0927 16.144C56.2367 16.144 55.5607 15.848 55.0647 15.256C54.5607 14.664 54.3087 13.88 54.3087 12.904C54.3087 11.912 54.5607 11.124 55.0647 10.54C55.5527 9.956 56.2287 9.664 57.0927 9.664C57.9247 9.664 58.5607 9.98 59.0007 10.612ZM55.8567 12.952C55.8567 13.592 55.9967 14.076 56.2767 14.404C56.5567 14.732 56.9447 14.896 57.4407 14.896C57.9367 14.896 58.3287 14.724 58.6167 14.38C58.8967 14.036 59.0367 13.544 59.0367 12.904C59.0367 12.264 58.8967 11.772 58.6167 11.428C58.3367 11.084 57.9447 10.912 57.4407 10.912C56.9527 10.912 56.5647 11.092 56.2767 11.452C55.9967 11.812 55.8567 12.312 55.8567 12.952ZM67.7571 12.904C67.7571 13.88 67.4691 14.664 66.8931 15.256C66.3171 15.848 65.5571 16.144 64.6131 16.144C63.6691 16.144 62.9091 15.848 62.3331 15.256C61.7491 14.672 61.4571 13.888 61.4571 12.904C61.4571 11.92 61.7491 11.136 62.3331 10.552C62.9091 9.96 63.6691 9.664 64.6131 9.664C65.5571 9.664 66.3171 9.956 66.8931 10.54C67.4691 11.124 67.7571 11.912 67.7571 12.904ZM63.4251 14.38C63.7131 14.724 64.1091 14.896 64.6131 14.896C65.1171 14.896 65.5091 14.724 65.7891 14.38C66.0771 14.028 66.2211 13.536 66.2211 12.904C66.2211 12.272 66.0771 11.784 65.7891 11.44C65.5091 11.088 65.1171 10.912 64.6131 10.912C64.1091 10.912 63.7131 11.084 63.4251 11.428C63.1451 11.772 63.0051 12.264 63.0051 12.904C63.0051 13.544 63.1451 14.036 63.4251 14.38Z" fill="white"/>
</svg>
