<svg xmlns="http://www.w3.org/2000/svg" width="14.559" height="14.556" viewBox="0 0 14.559 14.556">
  <g id="IconSmartApps" transform="translate(-4.493 -4.496)">
    <path id="Caminho_566" data-name="Caminho 566" d="M18.555,7.288,12.892,4.707a3.067,3.067,0,0,0-2.233,0L5,7.288c-.667.3-.667.8,0,1.1l5.61,2.559a3.223,3.223,0,0,0,2.335,0l5.61-2.559C19.222,8.088,19.222,7.591,18.555,7.288Z" transform="translate(-0.003 0)" fill="#dd4545"/>
    <g id="Grupo_1371" data-name="Grupo 1371" transform="translate(4.493 10.63)">
      <path id="Caminho_567" data-name="Caminho 567" d="M10.61,24.861,6.827,23.136a.615.615,0,0,0-.5,0L5,23.739c-.667.3-.667.8,0,1.1L10.61,27.4a3.223,3.223,0,0,0,2.335,0l5.61-2.559c.667-.3.667-.8,0-1.1l-1.323-.6a.615.615,0,0,0-.5,0l-3.783,1.725A3.223,3.223,0,0,1,10.61,24.861Z" transform="translate(-4.496 -19.197)" fill="#14aa4b"/>
      <path id="Caminho_568" data-name="Caminho 568" d="M18.552,16.475l-1.2-.546a.606.606,0,0,0-.5,0l-4.094,1.854a3.346,3.346,0,0,1-1.967,0L6.7,15.929a.606.606,0,0,0-.5,0l-1.2.546c-.667.3-.667.8,0,1.1l5.61,2.559a3.223,3.223,0,0,0,2.335,0l5.61-2.559C19.219,17.274,19.219,16.778,18.552,16.475Z" transform="translate(-4.493 -15.875)" fill="#338ae8"/>
    </g>
  </g>
</svg>
