<svg xmlns="http://www.w3.org/2000/svg" width="15.002" height="16.611" viewBox="0 0 15.002 16.611">
  <g id="IconEstratégia" transform="translate(-930 -672.717)">
    <g id="lightbulb" transform="translate(930 672.717)">
      <path id="Caminho_573" data-name="Caminho 573" d="M26.225,5.9l.007-.007h0a.23.23,0,0,0-.005-.318L25.9,5.247a.23.23,0,0,0-.318-.005h0l-1.4,1.4a.23.23,0,0,0,0,.326l.326.326h0a.23.23,0,0,0,.326,0l1.4-1.4Z" transform="translate(-13.017 -3.52)" fill="#1F2D27"/>
      <path id="Caminho_574" data-name="Caminho 574" d="M17.184,3.847h.46a.23.23,0,0,0,.23-.221h0V1.643a.23.23,0,0,0-.23-.23h-.46a.23.23,0,0,0-.23.23V3.626h0a.23.23,0,0,0,.23.221Z" transform="translate(-9.914 -1.412)" fill="#1F2D27"/>
      <path id="Caminho_575" data-name="Caminho 575" d="M29.89,14.106a.23.23,0,0,0-.221-.23H27.685a.23.23,0,0,0-.23.23v.46a.23.23,0,0,0,.23.23h1.983a.23.23,0,0,0,.221-.23v-.46Z" transform="translate(-14.888 -7.585)" fill="#1F2D27"/>
      <path id="Caminho_576" data-name="Caminho 576" d="M14.614,8.712a4.227,4.227,0,0,0-4.277,4.176,4.085,4.085,0,0,0,.8,2.422h0A7,7,0,0,1,12.2,18.986a.292.292,0,0,0,.248.138c.011,0,.022,0,.033,0v0h4.254v0c.011,0,.022,0,.032,0a.292.292,0,0,0,.262-.161A6.922,6.922,0,0,1,18.2,15.149a4.074,4.074,0,0,0,.689-2.261,4.226,4.226,0,0,0-4.277-4.176Z" transform="translate(-7.112 -5.495)" fill="#1F2D27"/>
      <path id="Caminho_577" data-name="Caminho 577" d="M17.234,32.323l-.026,0v0H13.85v0l-.026,0a.231.231,0,0,0-.23.23v.537a.23.23,0,0,0,.23.23l.026,0v0h3.358v0l.026,0a.23.23,0,0,0,.23-.23v-.537a.23.23,0,0,0-.23-.23Z" transform="translate(-8.036 -16.71)" fill="#1F2D27"/>
      <path id="Caminho_578" data-name="Caminho 578" d="M17.234,28.925l-.026,0v0H13.85v0l-.026,0a.23.23,0,0,0-.23.223v.545a.23.23,0,0,0,.23.23l.026,0v0h3.358v0l.026,0a.23.23,0,0,0,.23-.23v-.537A.23.23,0,0,0,17.234,28.925Z" transform="translate(-8.036 -14.809)" fill="#1F2D27"/>
      <path id="Caminho_579" data-name="Caminho 579" d="M5.233,14.286H3.249a.23.23,0,0,0-.23.23v.46a.23.23,0,0,0,.23.23H5.233a.23.23,0,0,0,.221-.229v-.46A.23.23,0,0,0,5.233,14.286Z" transform="translate(-3.019 -7.788)" fill="#1F2D27"/>
      <path id="Caminho_580" data-name="Caminho 580" d="M7.186,5.717l1.4,1.4h0a.229.229,0,0,0,.318-.005h0l.326-.326a.23.23,0,0,0,.005-.318h0l-1.4-1.4a.23.23,0,0,0-.326,0l-.326.326a.23.23,0,0,0,0,.326Z" transform="translate(-5.313 -3.418)" fill="#1F2D27"/>
    </g>
  </g>
</svg>
