<svg width="391" height="50" viewBox="0 0 391 50" fill="none" xmlns="http://www.w3.org/2000/svg">
<g clip-path="url(#clip0)">
<path d="M126.5 18C128.117 18 129.601 18.5535 130.786 19.4741L134.423 16.0041C132.309 14.14 129.541 13 126.5 13C121.892 13 117.897 15.5999 115.886 19.4099L119.93 22.6028C120.91 19.9194 123.477 18 126.5 18Z" fill="#F44336"/>
<path d="M138.396 26.5018C138.459 26.0102 138.5 25.5087 138.5 25C138.5 24.1422 138.406 23.3068 138.235 22.5H126.5V27.5H132.986C132.461 28.8638 131.527 30.0178 130.338 30.8195L134.397 34.0243C136.549 32.1354 138.022 29.4904 138.396 26.5018Z" fill="#2196F3"/>
<path d="M119.5 25.0001C119.5 24.1566 119.657 23.3517 119.93 22.6028L115.886 19.4099C115.004 21.0801 114.5 22.9802 114.5 25.0001C114.5 26.9973 114.995 28.8764 115.858 30.533L119.908 27.336C119.648 26.6045 119.5 25.8205 119.5 25.0001Z" fill="#FFC107"/>
<path d="M126.5 32C123.455 32 120.871 30.0515 119.908 27.3359L115.858 30.533C117.859 34.3735 121.87 37 126.5 37C129.528 37 132.289 35.8752 134.398 34.0243L130.338 30.8195C129.241 31.5589 127.929 32 126.5 32Z" fill="#00B060"/>
<path opacity="0.1" d="M126.5 36.7499C122.968 36.7499 119.793 35.2927 117.547 32.9712C119.745 35.4377 122.936 36.9999 126.5 36.9999C130.03 36.9999 133.195 35.4685 135.388 33.0406C133.149 35.3245 129.998 36.7499 126.5 36.7499Z" fill="black"/>
<path opacity="0.1" d="M126.5 27.25V27.5H132.986L133.087 27.25H126.5Z" fill="black"/>
<path d="M138.494 25.147C138.495 25.0977 138.5 25.0493 138.5 24.9999C138.5 24.986 138.498 24.9725 138.498 24.9585C138.497 25.0215 138.494 25.0837 138.494 25.147Z" fill="#E6E6E6"/>
<path opacity="0.2" d="M126.5 22.5V22.75H138.286C138.27 22.6675 138.253 22.5819 138.235 22.5H126.5Z" fill="#FEFEFE"/>
<path d="M138.235 22.5H126.5V27.5H132.986C131.978 30.1216 129.477 32 126.5 32C122.634 32 119.5 28.866 119.5 25C119.5 21.134 122.634 18 126.5 18C127.902 18 129.194 18.4307 130.289 19.1407C130.456 19.2496 130.629 19.3518 130.786 19.4741L134.423 16.0041L134.341 15.941C132.237 14.1171 129.504 13 126.5 13C119.873 13 114.5 18.3726 114.5 25C114.5 31.6274 119.873 37 126.5 37C132.618 37 137.655 32.4188 138.396 26.5018C138.459 26.0102 138.5 25.5087 138.5 25C138.5 24.1422 138.406 23.3068 138.235 22.5Z" fill="url(#paint0_linear)"/>
<path opacity="0.1" d="M130.289 18.8907C129.194 18.1807 127.902 17.7501 126.5 17.7501C122.634 17.7501 119.5 20.884 119.5 24.7501C119.5 24.7922 119.501 24.8252 119.501 24.8672C119.569 21.0596 122.676 18.0001 126.5 18.0001C127.902 18.0001 129.194 18.4307 130.289 19.1407C130.456 19.2496 130.629 19.3519 130.786 19.4741L134.423 16.0042L130.786 19.2241C130.629 19.1019 130.456 18.9996 130.289 18.8907Z" fill="black"/>
<path opacity="0.2" d="M126.5 13.25C129.475 13.25 132.183 14.3484 134.279 16.1416L134.423 16.0041L134.313 15.9083C132.209 14.0844 129.504 13 126.5 13C119.873 13 114.5 18.3726 114.5 25C114.5 25.0422 114.506 25.0829 114.506 25.125C114.574 18.5558 119.915 13.25 126.5 13.25Z" fill="#FEFEFE"/>
</g>
<path d="M152.388 31.256C150.799 31.256 149.508 30.7173 148.516 29.64C147.513 28.5733 147.012 27.128 147.012 25.304C147.012 23.4907 147.508 22.0453 148.5 20.968C149.492 19.8907 150.788 19.352 152.388 19.352C153.647 19.352 154.729 19.688 155.636 20.36C156.543 21.0427 157.124 22.0507 157.38 23.384H155.652C155.439 22.552 155.044 21.928 154.468 21.512C153.903 21.0853 153.209 20.872 152.388 20.872C151.289 20.872 150.415 21.272 149.764 22.072C149.113 22.8613 148.788 23.9387 148.788 25.304C148.788 26.6693 149.113 27.752 149.764 28.552C150.415 29.3413 151.289 29.736 152.388 29.736C153.209 29.736 153.945 29.4853 154.596 28.984C155.225 28.4827 155.604 27.752 155.732 26.792H157.444C157.305 28.2107 156.756 29.3093 155.796 30.088C154.847 30.8667 153.711 31.256 152.388 31.256ZM162.899 22.616C163.133 22.616 163.288 22.6213 163.363 22.632V24.152H162.963C162.141 24.152 161.507 24.3547 161.059 24.76C160.611 25.1653 160.387 25.752 160.387 26.52V31H158.787V22.744H160.323V24.216C160.845 23.1493 161.704 22.616 162.899 22.616ZM166.137 21.576H164.505V19.864H166.137V21.576ZM166.121 31H164.521V22.744H166.121V31ZM175.368 26.936V27.4H169.144C169.218 28.2107 169.458 28.824 169.864 29.24C170.269 29.6453 170.818 29.848 171.512 29.848C172.557 29.848 173.24 29.3893 173.56 28.472H175.176C174.952 29.3147 174.514 29.9813 173.864 30.472C173.224 30.952 172.429 31.192 171.48 31.192C170.296 31.192 169.341 30.7973 168.616 30.008C167.89 29.2187 167.528 28.1733 167.528 26.872C167.528 25.5707 167.89 24.5253 168.616 23.736C169.341 22.9467 170.285 22.552 171.448 22.552C172.664 22.552 173.624 22.9627 174.328 23.784C175.021 24.6053 175.368 25.656 175.368 26.936ZM171.448 23.896C170.818 23.896 170.301 24.088 169.896 24.472C169.501 24.856 169.256 25.4107 169.16 26.136H173.72C173.645 25.464 173.405 24.9253 173 24.52C172.605 24.104 172.088 23.896 171.448 23.896ZM183.077 31.208C180.784 31.208 179.578 30.264 179.461 28.376H181.061C181.125 28.952 181.312 29.3573 181.621 29.592C181.93 29.8267 182.421 29.944 183.093 29.944C184.309 29.944 184.917 29.56 184.917 28.792C184.917 28.4613 184.789 28.2053 184.533 28.024C184.277 27.8427 183.818 27.6933 183.157 27.576L182.309 27.416C180.56 27.096 179.685 26.2747 179.685 24.952C179.685 24.216 179.968 23.6347 180.533 23.208C181.098 22.7707 181.877 22.552 182.869 22.552C185.141 22.552 186.304 23.4747 186.357 25.32H184.805C184.773 24.7653 184.602 24.376 184.293 24.152C183.984 23.9173 183.509 23.8 182.869 23.8C182.357 23.8 181.962 23.896 181.685 24.088C181.408 24.28 181.269 24.552 181.269 24.904C181.269 25.224 181.392 25.4747 181.637 25.656C181.882 25.8267 182.272 25.9653 182.805 26.072L183.669 26.216C184.682 26.408 185.413 26.696 185.861 27.08C186.309 27.464 186.533 27.9973 186.533 28.68C186.533 29.48 186.229 30.104 185.621 30.552C185.013 30.9893 184.165 31.208 183.077 31.208ZM193.148 27.4V22.744H194.748V31H193.212V29.768C192.583 30.7173 191.719 31.192 190.62 31.192C189.713 31.192 189.004 30.936 188.492 30.424C187.98 29.912 187.724 29.1973 187.724 28.28V22.744H189.324V28.056C189.324 29.208 189.905 29.784 191.068 29.784C191.655 29.784 192.145 29.576 192.54 29.16C192.945 28.7333 193.148 28.1467 193.148 27.4ZM203.656 29.768H204.104V31C203.87 31.032 203.608 31.048 203.32 31.048C202.808 31.048 202.424 30.9573 202.168 30.776C201.923 30.584 201.774 30.2853 201.72 29.88C201.166 30.7547 200.27 31.192 199.032 31.192C198.126 31.192 197.406 30.9787 196.872 30.552C196.35 30.1147 196.088 29.512 196.088 28.744C196.088 27.2507 197.123 26.3973 199.192 26.184L200.408 26.056C200.835 26.0027 201.144 25.896 201.336 25.736C201.539 25.5653 201.64 25.3253 201.64 25.016C201.64 24.6 201.507 24.3013 201.24 24.12C200.984 23.928 200.552 23.832 199.944 23.832C199.283 23.832 198.808 23.944 198.52 24.168C198.232 24.3813 198.067 24.7653 198.024 25.32H196.44C196.558 23.4747 197.726 22.552 199.944 22.552C202.12 22.552 203.208 23.3627 203.208 24.984V29.352C203.208 29.6293 203.358 29.768 203.656 29.768ZM199.272 29.944C199.955 29.944 200.52 29.752 200.968 29.368C201.416 28.984 201.64 28.44 201.64 27.736V26.872C201.438 27.0427 201.096 27.1547 200.616 27.208L199.464 27.336C198.846 27.4107 198.403 27.56 198.136 27.784C197.87 27.9973 197.736 28.3013 197.736 28.696C197.736 29.0907 197.864 29.4 198.12 29.624C198.387 29.8373 198.771 29.944 199.272 29.944ZM211.452 31.208C209.159 31.208 207.953 30.264 207.836 28.376H209.436C209.5 28.952 209.687 29.3573 209.996 29.592C210.305 29.8267 210.796 29.944 211.468 29.944C212.684 29.944 213.292 29.56 213.292 28.792C213.292 28.4613 213.164 28.2053 212.908 28.024C212.652 27.8427 212.193 27.6933 211.532 27.576L210.684 27.416C208.935 27.096 208.06 26.2747 208.06 24.952C208.06 24.216 208.343 23.6347 208.908 23.208C209.473 22.7707 210.252 22.552 211.244 22.552C213.516 22.552 214.679 23.4747 214.732 25.32H213.18C213.148 24.7653 212.977 24.376 212.668 24.152C212.359 23.9173 211.884 23.8 211.244 23.8C210.732 23.8 210.337 23.896 210.06 24.088C209.783 24.28 209.644 24.552 209.644 24.904C209.644 25.224 209.767 25.4747 210.012 25.656C210.257 25.8267 210.647 25.9653 211.18 26.072L212.044 26.216C213.057 26.408 213.788 26.696 214.236 27.08C214.684 27.464 214.908 27.9973 214.908 28.68C214.908 29.48 214.604 30.104 213.996 30.552C213.388 30.9893 212.54 31.208 211.452 31.208ZM221.523 27.4V22.744H223.123V31H221.587V29.768C220.958 30.7173 220.094 31.192 218.995 31.192C218.088 31.192 217.379 30.936 216.867 30.424C216.355 29.912 216.099 29.1973 216.099 28.28V22.744H217.699V28.056C217.699 29.208 218.28 29.784 219.443 29.784C220.03 29.784 220.52 29.576 220.915 29.16C221.32 28.7333 221.523 28.1467 221.523 27.4ZM232.031 29.768H232.479V31C232.245 31.032 231.983 31.048 231.695 31.048C231.183 31.048 230.799 30.9573 230.543 30.776C230.298 30.584 230.149 30.2853 230.095 29.88C229.541 30.7547 228.645 31.192 227.407 31.192C226.501 31.192 225.781 30.9787 225.247 30.552C224.725 30.1147 224.463 29.512 224.463 28.744C224.463 27.2507 225.498 26.3973 227.567 26.184L228.783 26.056C229.21 26.0027 229.519 25.896 229.711 25.736C229.914 25.5653 230.015 25.3253 230.015 25.016C230.015 24.6 229.882 24.3013 229.615 24.12C229.359 23.928 228.927 23.832 228.319 23.832C227.658 23.832 227.183 23.944 226.895 24.168C226.607 24.3813 226.442 24.7653 226.399 25.32H224.815C224.933 23.4747 226.101 22.552 228.319 22.552C230.495 22.552 231.583 23.3627 231.583 24.984V29.352C231.583 29.6293 231.733 29.768 232.031 29.768ZM227.647 29.944C228.33 29.944 228.895 29.752 229.343 29.368C229.791 28.984 230.015 28.44 230.015 27.736V26.872C229.813 27.0427 229.471 27.1547 228.991 27.208L227.839 27.336C227.221 27.4107 226.778 27.56 226.511 27.784C226.245 27.9973 226.111 28.3013 226.111 28.696C226.111 29.0907 226.239 29.4 226.495 29.624C226.762 29.8373 227.146 29.944 227.647 29.944ZM240.323 31.192C239.15 31.192 238.2 30.7973 237.475 30.008C236.75 29.2187 236.387 28.1733 236.387 26.872C236.387 25.56 236.75 24.5093 237.475 23.72C238.19 22.9413 239.139 22.552 240.323 22.552C241.336 22.552 242.168 22.8293 242.819 23.384C243.48 23.9387 243.875 24.6853 244.003 25.624H242.371C242.264 25.08 242.024 24.664 241.651 24.376C241.288 24.088 240.846 23.944 240.323 23.944C239.63 23.944 239.075 24.2 238.659 24.712C238.254 25.2133 238.051 25.9333 238.051 26.872C238.051 27.8107 238.254 28.536 238.659 29.048C239.075 29.5493 239.63 29.8 240.323 29.8C240.856 29.8 241.31 29.6507 241.683 29.352C242.056 29.0533 242.291 28.6213 242.387 28.056H244.019C243.891 29.016 243.491 29.7787 242.819 30.344C242.147 30.9093 241.315 31.192 240.323 31.192ZM251.959 30.008C251.201 30.7973 250.215 31.192 248.999 31.192C247.783 31.192 246.796 30.7973 246.039 30.008C245.281 29.2187 244.903 28.1733 244.903 26.872C244.903 25.56 245.281 24.5093 246.039 23.72C246.785 22.9413 247.772 22.552 248.999 22.552C250.225 22.552 251.212 22.9413 251.959 23.72C252.705 24.4987 253.079 25.5493 253.079 26.872C253.079 28.184 252.705 29.2293 251.959 30.008ZM247.223 29.032C247.66 29.5547 248.252 29.816 248.999 29.816C249.745 29.816 250.332 29.5547 250.759 29.032C251.196 28.5093 251.415 27.7893 251.415 26.872C251.415 25.9547 251.196 25.2347 250.759 24.712C250.332 24.1893 249.745 23.928 248.999 23.928C248.252 23.928 247.66 24.1893 247.223 24.712C246.785 25.2347 246.567 25.9547 246.567 26.872C246.567 27.7893 246.785 28.5093 247.223 29.032ZM258.618 22.552C259.524 22.552 260.234 22.808 260.746 23.32C261.258 23.8213 261.514 24.536 261.514 25.464V31H259.914V25.688C259.914 24.536 259.332 23.96 258.17 23.96C257.636 23.96 257.156 24.1627 256.73 24.568C256.303 24.984 256.09 25.576 256.09 26.344V31H254.49V22.744H256.026V23.976C256.655 23.0267 257.519 22.552 258.618 22.552ZM266.941 22.744V24.056H265.277V29.016C265.277 29.2613 265.346 29.4427 265.485 29.56C265.634 29.6667 265.88 29.72 266.221 29.72H266.941V31C266.589 31.032 266.264 31.048 265.965 31.048C265.186 31.048 264.61 30.8987 264.237 30.6C263.864 30.3013 263.677 29.8213 263.677 29.16V24.056H262.349V22.744H263.677V20.376H265.277V22.744H266.941ZM275.266 29.768H275.714V31C275.479 31.032 275.218 31.048 274.93 31.048C274.418 31.048 274.034 30.9573 273.778 30.776C273.532 30.584 273.383 30.2853 273.33 29.88C272.775 30.7547 271.879 31.192 270.642 31.192C269.735 31.192 269.015 30.9787 268.482 30.552C267.959 30.1147 267.698 29.512 267.698 28.744C267.698 27.2507 268.732 26.3973 270.802 26.184L272.018 26.056C272.444 26.0027 272.754 25.896 272.946 25.736C273.148 25.5653 273.25 25.3253 273.25 25.016C273.25 24.6 273.116 24.3013 272.85 24.12C272.594 23.928 272.162 23.832 271.554 23.832C270.892 23.832 270.418 23.944 270.13 24.168C269.842 24.3813 269.676 24.7653 269.634 25.32H268.05C268.167 23.4747 269.335 22.552 271.554 22.552C273.73 22.552 274.818 23.3627 274.818 24.984V29.352C274.818 29.6293 274.967 29.768 275.266 29.768ZM270.882 29.944C271.564 29.944 272.13 29.752 272.578 29.368C273.026 28.984 273.25 28.44 273.25 27.736V26.872C273.047 27.0427 272.706 27.1547 272.226 27.208L271.074 27.336C270.455 27.4107 270.012 27.56 269.746 27.784C269.479 27.9973 269.346 28.3013 269.346 28.696C269.346 29.0907 269.474 29.4 269.73 29.624C269.996 29.8373 270.38 29.944 270.882 29.944Z" fill="#29292E"/>
<rect x="0.5" y="0.5" width="390" height="49" rx="7.5" stroke="#A8A8B3" stroke-opacity="0.5"/>
<defs>
<linearGradient id="paint0_linear" x1="114.5" y1="25" x2="138.5" y2="25" gradientUnits="userSpaceOnUse">
<stop stop-color="white" stop-opacity="0.2"/>
<stop offset="1" stop-color="white" stop-opacity="0"/>
</linearGradient>
<clipPath id="clip0">
<rect width="24" height="24" fill="white" transform="translate(114.5 13)"/>
</clipPath>
</defs>
</svg>
