<svg width="49" height="52" viewBox="0 0 49 52" fill="none" xmlns="http://www.w3.org/2000/svg">
<path d="M44.9997 9.68051H2.99937C2.60204 9.68228 2.20884 9.60012 1.84558 9.43942C1.48233 9.27872 1.15725 9.04313 0.891689 8.74811C0.600477 8.44737 0.371812 8.09205 0.21889 7.70264C0.0659683 7.31323 -0.00818281 6.89744 0.000715753 6.47928C-0.0160176 5.63152 0.294403 4.8098 0.867738 4.18414C1.13119 3.87862 1.45866 3.63461 1.82701 3.46936C2.19536 3.30411 2.59558 3.22166 2.99937 3.22784H18.0022C17.988 2.38766 18.2985 1.57427 18.8692 0.956614C19.1333 0.651164 19.4612 0.407229 19.8299 0.242C20.1986 0.0767715 20.5991 -0.00573016 21.0033 0.000309188H26.991C27.3947 -0.00537917 27.7948 0.0772923 28.163 0.242509C28.5313 0.407726 28.8588 0.651475 29.1226 0.956614C29.6928 1.57367 30.0033 2.38609 29.9896 3.22545H45.0021C45.4015 3.22467 45.7965 3.30966 46.1601 3.47467C46.5238 3.63967 46.8477 3.88082 47.1097 4.18175C47.6958 4.80023 48.0156 5.62333 48.0007 6.4745C48.0099 6.89269 47.9358 7.30856 47.7829 7.698C47.63 8.08745 47.4012 8.44275 47.1097 8.74333C46.8439 9.03799 46.5188 9.27334 46.1556 9.43401C45.7924 9.59468 45.3993 9.67704 45.0021 9.67573L44.9997 9.68051ZM44.9997 45.169C45.0341 46.8613 44.403 48.4997 43.2417 49.733C42.7125 50.3342 42.0596 50.8143 41.3276 51.1407C40.5956 51.467 39.8016 51.6319 39 51.6241H8.99907C8.19671 51.631 7.40228 51.4653 6.66988 51.1381C5.93749 50.811 5.28435 50.3301 4.75497 49.7282C3.59207 48.4958 2.96072 46.8568 2.99697 45.1642V12.9104H44.9973V45.169H44.9997ZM14.9988 22.5835C15.0095 21.7427 14.6906 20.9311 14.1102 20.3218C13.8445 20.019 13.5165 19.7769 13.1487 19.6119C12.7809 19.4469 12.3818 19.3628 11.9786 19.3655C11.5786 19.3614 11.1825 19.4448 10.8184 19.6101C10.4542 19.7753 10.1308 20.0183 9.87088 20.3218C9.30132 20.9393 8.99096 21.7514 9.00386 22.5906V41.9558C8.98172 42.8038 9.29292 43.6267 9.87088 44.2486C10.1346 44.5459 10.4593 44.783 10.823 44.9439C11.1867 45.1048 11.5808 45.1857 11.9786 45.181C12.3796 45.1843 12.7769 45.1029 13.1442 44.9422C13.5116 44.7816 13.8408 44.5452 14.1102 44.2486C14.4032 43.9442 14.6328 43.5848 14.7858 43.1913C14.9387 42.7977 15.0119 42.3778 15.0012 41.9558V22.5906L14.9988 22.5835ZM26.9982 22.5835C27.0101 21.7399 26.6902 20.9253 26.1072 20.3146C25.8415 20.0119 25.5135 19.7697 25.1457 19.6047C24.7779 19.4397 24.3788 19.3557 23.9756 19.3583C23.5756 19.3542 23.1795 19.4377 22.8154 19.6029C22.4512 19.7681 22.1278 20.0111 21.8679 20.3146C21.2983 20.9321 20.988 21.7442 21.0009 22.5835V41.9486C20.9787 42.7966 21.2899 43.6195 21.8679 44.2414C22.1316 44.5387 22.4563 44.7759 22.82 44.9368C23.1837 45.0976 23.5778 45.1785 23.9756 45.1738C24.3766 45.1771 24.7739 45.0958 25.1412 44.9351C25.5086 44.7744 25.8378 44.538 26.1072 44.2414C26.4002 43.937 26.6298 43.5777 26.7828 43.1841C26.9357 42.7906 27.0089 42.3706 26.9982 41.9486V22.5835ZM38.9976 22.5835C39.0095 21.7399 38.6896 20.9253 38.1066 20.3146C37.8409 20.0119 37.5129 19.7697 37.1451 19.6047C36.7773 19.4397 36.3782 19.3557 35.975 19.3583C35.575 19.3542 35.1789 19.4377 34.8148 19.6029C34.4506 19.7681 34.1272 20.0111 33.8673 20.3146C33.2977 20.9321 32.9874 21.7442 33.0003 22.5835V41.9486C32.9781 42.7966 33.2893 43.6195 33.8673 44.2414C34.131 44.5387 34.4557 44.7759 34.8194 44.9368C35.1831 45.0976 35.5772 45.1785 35.975 45.1738C36.376 45.1771 36.7733 45.0958 37.1406 44.9351C37.508 44.7744 37.8372 44.538 38.1066 44.2414C38.3996 43.937 38.6292 43.5777 38.7822 43.1841C38.9351 42.7906 39.0083 42.3706 38.9976 41.9486V22.5835Z" fill="#E73F5D"/>
</svg>
