<svg width="27" height="24" viewBox="0 0 27 24" fill="none" xmlns="http://www.w3.org/2000/svg">
<path d="M18.5844 12.123L12.7176 16.441C12.5087 16.5948 12.2454 16.6722 11.9782 16.6586C11.7111 16.6449 11.4588 16.5411 11.2696 16.367L8.29764 13.633C8.10837 13.459 7.99552 13.2269 7.98068 12.9811C7.96584 12.7354 8.05005 12.4932 8.21719 12.301L12.9111 6.904C13.9705 5.68584 15.3142 4.70247 16.8427 4.02669C18.3712 3.35091 20.0454 3.00002 21.7412 3C22.0295 3 22.306 3.10536 22.5099 3.29289C22.7138 3.48043 22.8283 3.73478 22.8283 4C22.8283 5.56005 22.4468 7.10013 21.7122 8.50621C20.9776 9.9123 19.9086 11.1484 18.5844 12.123V12.123Z" stroke="#1F2D27" stroke-linecap="round" stroke-linejoin="round"/>
<path d="M17.3928 13V17.382C17.3927 17.5677 17.3364 17.7496 17.2302 17.9075C17.124 18.0654 16.9722 18.193 16.7916 18.276L14.1653 19.484C14.026 19.5481 13.8734 19.5839 13.7177 19.589C13.5621 19.5941 13.4071 19.5684 13.2632 19.5136C13.1193 19.4588 12.9899 19.3762 12.8837 19.2713C12.7775 19.1665 12.6971 19.0419 12.6478 18.906L11.9575 17" stroke="#1F2D27" stroke-linecap="round" stroke-linejoin="round"/>
<path d="M7.60903 13L5.5371 12.365C5.38936 12.3197 5.25392 12.2457 5.13997 12.148C5.02602 12.0503 4.93621 11.9313 4.87663 11.7989C4.81705 11.6665 4.78909 11.5239 4.79464 11.3807C4.80018 11.2376 4.83911 11.0971 4.90879 10.969L6.22195 8.553C6.31216 8.38692 6.45086 8.24722 6.6225 8.14955C6.79414 8.05188 6.99195 8.0001 7.19377 8H11.9572" stroke="#1F2D27" stroke-linecap="round" stroke-linejoin="round"/>
<path d="M6.25063 20.587L3.26123 21L3.71018 18.25C3.78116 17.8152 4.0018 17.4129 4.3397 17.1021C4.6776 16.7912 5.11496 16.5883 5.58752 16.523C5.93308 16.4753 6.28597 16.5029 6.61784 16.6035C6.94971 16.704 7.2513 16.8749 7.49837 17.1021C7.74545 17.3294 7.93112 17.6069 8.04046 17.9122C8.14981 18.2174 8.17978 18.5421 8.12797 18.86C8.057 19.2947 7.83635 19.697 7.49845 20.0079C7.16055 20.3187 6.72319 20.5217 6.25063 20.587Z" stroke="#1F2D27" stroke-linecap="round" stroke-linejoin="round"/>
</svg>
