<svg width="63" height="63" viewBox="0 0 63 63" fill="none" xmlns="http://www.w3.org/2000/svg">
<path d="M32.9301 4.12411C34.9267 6.12192 36.0479 8.83105 36.047 11.6555C36.0462 14.48 34.9233 17.1884 32.9255 19.185C31.9363 20.1736 30.762 20.9577 29.4698 21.4925C28.1776 22.0273 26.7926 22.3024 25.3941 22.302C22.5696 22.3011 19.8612 21.1783 17.8646 19.1805C15.8676 17.1826 14.746 14.4734 14.7466 11.6486C14.7472 8.82384 15.8698 6.11501 17.8676 4.11801C19.8655 2.12101 22.5747 0.999428 25.3995 1C28.2242 1.00057 30.9331 2.12325 32.9301 4.12106" stroke="#1F2D27" stroke-width="2" stroke-linecap="round" stroke-linejoin="round"/>
<path d="M38.7034 33.9286C34.7418 32.3458 30.0941 31.4736 25.3976 31.4736C13.0524 31.4736 1 37.4724 1 46.6977V49.7474C1 50.5562 1.32131 51.3319 1.89323 51.9039C2.46516 52.4758 3.24087 52.7971 4.0497 52.7971H32.7565" stroke="#1F2D27" stroke-width="2" stroke-linecap="round" stroke-linejoin="round"/>
<path d="M46.7455 61.9984C42.7014 61.9984 38.8229 60.3919 35.9632 57.5322C33.1036 54.6726 31.4971 50.7941 31.4971 46.7499C31.4971 38.5036 38.5114 31.4923 46.7577 31.5015C50.8019 31.5031 54.6798 33.1112 57.5383 35.972C60.3968 38.8327 62.0017 42.7119 62.0001 46.756C61.9985 50.8002 60.3904 54.6781 57.5296 57.5366C54.6688 60.3951 50.7897 62 46.7455 61.9984Z" stroke="#1F2D27" stroke-width="2" stroke-linecap="round" stroke-linejoin="round"/>
<path d="M46.7456 40.6504V52.8492" stroke="#1F2D27" stroke-width="2" stroke-linecap="round" stroke-linejoin="round"/>
<path d="M52.8448 46.75H40.646" stroke="#1F2D27" stroke-width="2" stroke-linecap="round" stroke-linejoin="round"/>
</svg>
