<svg width="152" height="139" viewBox="0 0 152 139" fill="none" xmlns="http://www.w3.org/2000/svg">
<path opacity="0.25" d="M150.92 69.5C150.92 107.569 117.359 138.5 75.8696 138.5C34.3804 138.5 0.819336 107.569 0.819336 69.5C0.819336 31.4308 34.3804 0.5 75.8696 0.5C117.359 0.5 150.92 31.4308 150.92 69.5Z" fill="#49E295" stroke="white"/>
<path opacity="0.25" d="M134.614 69.5C134.614 99.2849 108.353 123.5 75.8694 123.5C43.3857 123.5 17.125 99.2849 17.125 69.5C17.125 39.7151 43.3857 15.5 75.8694 15.5C108.353 15.5 134.614 39.7151 134.614 69.5Z" fill="#49E295" stroke="white"/>
<path opacity="0.25" d="M108.525 69.5C108.525 86.0301 93.9445 99.5 75.8695 99.5C57.7944 99.5 43.2144 86.0301 43.2144 69.5C43.2144 52.9699 57.7944 39.5 75.8695 39.5C93.9445 39.5 108.525 52.9699 108.525 69.5Z" fill="#49E295" stroke="white"/>
<path d="M81.9201 56.0102L91.7082 72.0145C92.2586 72.9141 92.5434 73.9307 92.5342 74.963C92.525 75.9953 92.2221 77.0074 91.6556 77.8986C91.0892 78.7898 90.2789 79.529 89.3055 80.0427C88.3321 80.5564 87.2294 80.8266 86.1072 80.8266H66.5342C65.4119 80.8266 64.3093 80.5564 63.3358 80.0427C62.3624 79.529 61.5522 78.7898 60.9857 77.8986C60.4193 77.0074 60.1164 75.9953 60.1072 74.963C60.0979 73.9307 60.3827 72.9141 60.9332 72.0145L70.7213 56.0102C71.2807 55.0968 72.094 54.3367 73.0779 53.8077C74.0619 53.2788 75.181 53 76.3207 53C77.4603 53 78.5795 53.2788 79.5634 53.8077C80.5474 54.3367 81.3607 55.0968 81.9201 56.0102V56.0102Z" stroke="#2ECC71" stroke-opacity="0.5" stroke-linecap="round" stroke-linejoin="round"/>
<path d="M76.3184 67.2877V61.8633" stroke="#2ECC71" stroke-opacity="0.5" stroke-linecap="round" stroke-linejoin="round"/>
<path d="M76.3188 73.2676C76.2412 73.2676 76.1669 73.2959 76.112 73.3464C76.0572 73.3968 76.0264 73.4652 76.0264 73.5366C76.0264 73.6079 76.0572 73.6764 76.112 73.7268C76.1669 73.7773 76.2412 73.8056 76.3188 73.8056C76.3964 73.8056 76.4707 73.7773 76.5256 73.7268C76.5804 73.6764 76.6112 73.6079 76.6112 73.5366C76.6112 73.4652 76.5804 73.3968 76.5256 73.3464C76.4707 73.2959 76.3964 73.2676 76.3188 73.2676" stroke="#2ECC71" stroke-opacity="0.5" stroke-linecap="round" stroke-linejoin="round"/>
</svg>
