<svg width="49" height="49" viewBox="0 0 49 49" fill="none" xmlns="http://www.w3.org/2000/svg">
<circle cx="24.5" cy="24.5" r="24.5" fill="#EFF1F1"/>
<path d="M15.17 11.08H24.06C27.91 11.08 30.9433 12.1883 33.16 14.405C35.33 16.6217 36.415 19.6667 36.415 23.54C36.415 27.4133 35.33 30.4583 33.16 32.675C30.9433 34.8917 27.91 36 24.06 36H15.17V11.08ZM18.915 32.71H24.025C26.755 32.71 28.8433 31.9167 30.29 30.33C31.76 28.7433 32.495 26.48 32.495 23.54C32.495 20.6 31.76 18.3367 30.29 16.75C28.8433 15.1633 26.755 14.37 24.025 14.37H18.915V32.71Z" fill="#6F7974"/>
</svg>
