<svg width="61" height="61" viewBox="0 0 61 61" fill="none" xmlns="http://www.w3.org/2000/svg">
<circle cx="30.5" cy="30.5" r="30" fill="white" stroke="black"/>
<circle opacity="0.25" cx="30.1444" cy="30.1444" r="28.6444" fill="#49E295" stroke="white"/>
<g opacity="0.5">
<path d="M38.9237 50.6644C40.8085 50.6644 42.5315 49.5996 43.3744 47.9138V47.9138C44.4935 45.6754 43.7762 42.9542 41.6991 41.5584L37.5253 38.7537C36.2037 37.8656 34.6699 37.3442 33.0808 37.2428L30.8777 37.1022C29.7042 37.0273 28.5551 37.4597 27.7221 38.2896V38.2896C26.3355 39.6713 26.1187 41.8404 27.2046 43.4691L29.4278 46.804C31.0357 49.2158 33.7425 50.6644 36.6411 50.6644H38.9237Z" stroke="#2ECC71" stroke-linecap="round" stroke-linejoin="round"/>
<path d="M5.17801 20.5411L14.3652 27.4366C16.6096 29.1212 19.8313 28.3664 21.0938 25.8601V25.8601C21.6824 24.6917 22.7498 23.8369 24.0185 23.5177L29.5254 22.1324C33.1017 21.2327 35.8925 18.4379 36.7871 14.8603L39.2732 4.91821" stroke="#2ECC71" stroke-linecap="round" stroke-linejoin="round"/>
</g>
</svg>
