<svg width="45" height="45" viewBox="0 0 45 45" fill="none" xmlns="http://www.w3.org/2000/svg">
<path d="M13.3041 14.8099V7.48386C13.3041 6.99811 13.497 6.53226 13.8405 6.18878C14.184 5.84531 14.6498 5.65234 15.1356 5.65234H29.7878C30.2735 5.65234 30.7394 5.84531 31.0828 6.18878C31.4263 6.53226 31.6193 6.99811 31.6193 7.48386V14.8099" stroke="#0048B2" stroke-linecap="round" stroke-linejoin="round"/>
<path d="M13.3041 31.2935H9.64107C8.66957 31.2935 7.73786 30.9076 7.05091 30.2206C6.36395 29.5337 5.97803 28.602 5.97803 27.6305V18.4729C5.97803 17.5014 6.36395 16.5696 7.05091 15.8827C7.73786 15.1957 8.66957 14.8098 9.64107 14.8098H35.2824C36.2539 14.8098 37.1856 15.1957 37.8725 15.8827C38.5595 16.5696 38.9454 17.5014 38.9454 18.4729V27.6305C38.9454 28.602 38.5595 29.5337 37.8725 30.2206C37.1856 30.9076 36.2539 31.2935 35.2824 31.2935H31.6193" stroke="#0048B2" stroke-linecap="round" stroke-linejoin="round"/>
<path d="M13.3041 25.4329H31.6193V36.7883C31.6193 37.274 31.4263 37.7399 31.0828 38.0834C30.7394 38.4268 30.2735 38.6198 29.7878 38.6198H15.1356C14.6498 38.6198 14.184 38.4268 13.8405 38.0834C13.497 37.7399 13.3041 37.274 13.3041 36.7883V25.4329Z" stroke="#0048B2" stroke-linecap="round" stroke-linejoin="round"/>
<path d="M13.3041 20.3044H15.1356" stroke="#0048B2" stroke-linecap="round" stroke-linejoin="round"/>
</svg>
