<svg width="61" height="61" viewBox="0 0 61 61" fill="none" xmlns="http://www.w3.org/2000/svg">
<circle cx="30.5002" cy="31" r="27" fill="#DFFFF2"/>
<path d="M14.2223 24.1389C15.528 22.5357 17.313 21.6267 19.1806 21.6267C21.0482 21.6267 22.7836 22.5357 24.1389 24.1389" stroke="#1F2D27" stroke-linecap="round" stroke-linejoin="round"/>
<path d="M37.3613 24.1389C38.667 22.5357 40.452 21.6267 42.3196 21.6267C44.1873 21.6267 45.9227 22.5357 47.2779 24.1389" stroke="#1F2D27" stroke-linecap="round" stroke-linejoin="round"/>
<path d="M51.7865 9.71358C54.549 12.4761 56.7404 15.7557 58.2355 19.3652C59.7306 22.9746 60.5001 26.8432 60.5001 30.75C60.5001 34.6569 59.7306 38.5254 58.2355 42.1349C56.7404 45.7443 54.549 49.0239 51.7865 51.7865C49.0239 54.549 45.7443 56.7404 42.1349 58.2355C38.5254 59.7306 34.6569 60.5001 30.75 60.5001C26.8432 60.5001 22.9746 59.7306 19.3652 58.2355C15.7557 56.7404 12.4761 54.549 9.71358 51.7865C4.13437 46.2073 1 38.6402 1 30.75C1 22.8598 4.13437 15.2928 9.71358 9.71358C15.2928 4.13437 22.8598 1 30.75 1C38.6402 1 46.2073 4.13437 51.7865 9.71358" stroke="#1F2D27" stroke-linecap="round" stroke-linejoin="round"/>
<path d="M42.3194 39.6355C42.3194 39.6355 37.9793 43.9724 30.7501 43.9724C23.5175 43.9724 19.1807 39.6355 19.1807 39.6355" stroke="#1F2D27" stroke-linecap="round" stroke-linejoin="round"/>
</svg>
