<svg width="21" height="22" viewBox="0 0 21 22" fill="none" xmlns="http://www.w3.org/2000/svg">
<path d="M12.4667 21H8.20001" stroke="#6F7974" stroke-linecap="round" stroke-linejoin="round"/>
<path d="M17 7.70933V7.66667C17 3.98533 14.0147 1 10.3333 1C6.652 1 3.66667 3.98533 3.66667 7.66667V7.70933V11.0053C3.66667 11.4373 3.42267 11.8307 3.03733 12.024L2.36667 12.3587C1.52933 12.7787 1 13.6347 1 14.5707C1 15.936 2.10667 17.0427 3.472 17.0427H17.1947C18.56 17.0427 19.6667 15.936 19.6667 14.5707C19.6667 13.6347 19.1373 12.7787 18.3 12.36L17.6293 12.0253C17.244 11.8307 17 11.4373 17 11.0053V7.70933V7.70933Z" stroke="#6F7974" stroke-linecap="round" stroke-linejoin="round"/>
</svg>
