<svg width="649" height="287" viewBox="0 0 649 287" fill="none" xmlns="http://www.w3.org/2000/svg">
<g clip-path="url(#clip0_245_1984)">
<path d="M608.85 284.71H564.45V161.06H524.32V126H648.87V161.06H608.87L608.85 284.71Z" fill="#00897B"/>
<path d="M471.43 226.95V284.71H427.03V126H480.88C525.547 126 547.88 141.63 547.88 172.89C547.88 191.277 538.587 205.5 520 215.56L567.89 284.71H517.52L482.67 226.95H471.43ZM471.43 194.71H479.76C495.267 194.71 503.023 188.09 503.03 174.85C503.03 163.917 495.423 158.453 480.21 158.46H471.44L471.43 194.71Z" fill="#7CB342"/>
<path d="M396.68 284.71L388.58 254.96H335.19L326.87 284.71H278.09L331.76 125.35H391L445.29 284.71H396.68ZM379.37 219.79L372.29 193.74C370.643 187.953 368.643 180.463 366.29 171.27C363.937 162.077 362.383 155.49 361.63 151.51C360.963 155.197 359.63 161.273 357.63 169.74C355.63 178.207 351.227 194.89 344.42 219.79H379.37Z" fill="#14AA4B"/>
<path d="M176.64 284.71L143.03 170.4H142.03C143.603 189.867 144.39 204.99 144.39 215.77V284.71H105.04V126H164.16L198.45 238.68H199.35L232.96 126H292.19V284.71H251.39V215.16C251.39 211.54 251.447 207.54 251.56 203.16C251.673 198.78 252.18 187.96 253.08 170.7H252.08L218.92 284.8L176.64 284.71Z" fill="#338AE8"/>
<path d="M115.11 236.51C115.259 245.834 112.551 254.98 107.35 262.72C102.183 270.36 94.7267 276.297 84.98 280.53C75.2333 284.763 63.8067 286.88 50.7 286.88C41.4695 287.028 32.2464 286.281 23.16 284.65C15.1631 282.978 7.39005 280.373 0 276.89V238.68C8.4384 242.87 17.2937 246.161 26.42 248.5C34.6311 250.733 43.0915 251.919 51.6 252.03C58.1933 252.03 63.0267 250.927 66.1 248.72C67.5364 247.803 68.7172 246.537 69.5321 245.04C70.3469 243.543 70.7694 241.864 70.76 240.16C70.7962 238.105 70.1412 236.098 68.9 234.46C67.2169 232.462 65.1836 230.788 62.9 229.52C60.1733 227.86 52.8867 224.46 41.04 219.32C30.32 214.607 22.2833 210.047 16.93 205.64C11.8385 201.559 7.75905 196.357 5.00999 190.44C2.42999 184.72 1.14 177.953 1.14 170.14C1.14 155.52 6.64666 144.12 17.66 135.94C28.6733 127.76 43.81 123.673 63.07 123.68C80.0767 123.68 97.4266 127.48 115.12 135.08L101.52 168.16C86.1533 161.4 72.9 158.02 61.76 158.02C55.9867 158.02 51.79 158.997 49.17 160.95C47.969 161.749 46.9826 162.831 46.2973 164.1C45.6121 165.369 45.249 166.787 45.24 168.23C45.24 171.343 46.9067 174.127 50.24 176.58C53.5733 179.033 62.6233 183.523 77.39 190.05C91.55 196.203 101.383 202.807 106.89 209.86C112.397 216.913 115.137 225.797 115.11 236.51Z" fill="#DD4545"/>
<path d="M16.977 100.961C15.7516 99.7461 15.0982 98.2252 15.1311 96.6639L15.0791 50.9485C15.0018 49.3619 15.6558 47.8079 16.9164 46.5825C17.4254 46.044 18.0792 45.604 18.8292 45.2952C19.5793 44.9864 20.4064 44.8167 21.2495 44.7986C21.9919 44.7954 22.7262 44.9231 23.4001 45.1726C24.0741 45.4221 24.6712 45.7873 25.1493 46.2424C26.2667 47.267 26.9653 48.5412 27.1511 49.8935C30.8256 46.4922 34.8525 44.7893 39.2318 44.7847C42.316 44.7611 45.3503 45.4089 48.0107 46.6588C50.7717 47.9768 53.1078 49.7957 54.8309 51.9689C57.0929 49.784 59.8773 47.9833 63.0205 46.6727C65.9003 45.4431 69.108 44.7882 72.3713 44.7639C75.2988 44.7428 78.1842 45.3235 80.7515 46.4506C83.3848 47.6296 85.6442 49.2778 87.3551 51.2678C89.2317 53.4404 90.6461 55.8469 91.5409 58.3896C92.5395 61.2073 93.0384 64.1234 93.0228 67.0523V96.6708C93.0987 98.2244 92.4846 99.7492 91.2896 100.974C90.7959 101.508 90.1532 101.942 89.4128 102.24C88.6724 102.539 87.8549 102.695 87.0258 102.696C86.1836 102.678 85.3572 102.509 84.6073 102.202C83.8573 101.894 83.2031 101.456 82.6927 100.919C81.4423 99.7373 80.7844 98.2259 80.8468 96.6778V66.8788C80.819 65.558 80.5712 64.2461 80.1102 62.9778C79.7053 61.8432 79.0604 60.7726 78.2037 59.8126C77.423 58.9516 76.3986 58.251 75.2146 57.7684C74.0305 57.2858 72.7206 57.0348 71.392 57.0361C70.0158 57.0476 68.6611 57.3111 67.4316 57.8065C66.0957 58.3311 64.8821 59.0355 63.8438 59.8889C61.6269 61.7062 60.3195 64.1118 60.1693 66.6497V96.6916C60.2452 98.2452 59.6311 99.77 58.4361 100.995C57.9438 101.53 57.3014 101.964 56.5607 102.263C55.82 102.563 55.0018 102.718 54.1723 102.717C53.3299 102.7 52.503 102.531 51.7529 102.224C51.0028 101.916 50.3487 101.477 49.8392 100.94C48.5994 99.756 47.9429 98.25 47.9933 96.7055V66.6567C48.0372 64.1897 47.0859 61.7771 45.2808 59.7779C44.5234 58.9263 43.5184 58.2354 42.3527 57.7649C41.1869 57.2944 39.8956 57.0586 38.5905 57.0777C37.2092 57.0846 35.8473 57.3383 34.6041 57.8204C33.2769 58.3226 32.0711 59.0088 31.0423 59.8473C29.9528 60.7499 29.0724 61.8005 28.4424 62.95C27.7977 64.1024 27.4442 65.3457 27.4025 66.6081V66.976C27.3562 67.0176 27.3562 67.1009 27.4025 67.2259C27.4463 67.3033 27.4689 67.3873 27.4689 67.4723C27.4689 67.5573 27.4463 67.6413 27.4025 67.7187V96.6569C27.4702 98.2181 26.8574 99.7495 25.6692 100.988C25.1783 101.543 24.5287 101.995 23.7748 102.307C23.0209 102.619 22.1847 102.782 21.3361 102.782C20.4875 102.782 19.6513 102.619 18.8974 102.307C18.1436 101.995 17.494 101.543 17.003 100.988L16.977 100.961Z" fill="#039767"/>
<path d="M119.151 101.141C115.496 99.5848 112.278 97.4444 109.697 94.8522C106.881 92.0503 104.715 88.8672 103.301 85.4537C100.279 78.1003 100.279 70.1647 103.301 62.8113C104.707 59.3871 106.867 56.1922 109.679 53.378C112.254 50.7809 115.466 48.6336 119.117 47.0684C122.588 45.5957 126.455 44.8237 130.383 44.8194C134.285 44.7975 138.133 45.5461 141.588 46.999C145.221 48.5559 148.427 50.6802 151.017 53.2462C153.832 56.0157 156.006 59.1656 157.439 62.5475C158.989 66.1552 159.792 69.9421 159.813 73.7577C159.893 75.2773 159.298 76.7704 158.132 77.971C157.616 78.4923 156.956 78.9108 156.204 79.1938C155.453 79.4768 154.629 79.6166 153.799 79.6022H114.584C115.05 81.2749 115.805 82.887 116.829 84.3917C117.772 85.8025 118.983 87.0879 120.417 88.2025C121.755 89.2757 123.341 90.1292 125.088 90.7152C126.777 91.2866 128.593 91.5771 130.426 91.569C132.562 91.645 134.687 91.2902 136.607 90.537C138.527 89.7838 140.18 88.6565 141.415 87.2585C141.928 86.7997 142.551 86.4272 143.245 86.1627C143.94 85.8981 144.694 85.7468 145.462 85.7175C146.164 85.7186 146.856 85.8443 147.49 86.0854C148.834 86.628 149.882 87.5468 150.436 88.6675C151.136 89.7257 151.496 90.9063 151.485 92.1035C151.505 92.9574 151.31 93.8058 150.911 94.5977C150.512 95.3897 149.917 96.109 149.162 96.7125C147.155 98.6356 144.697 100.225 141.926 101.391C138.347 102.758 134.417 103.433 130.452 103.362C126.515 103.374 122.634 102.611 119.151 101.141V101.141ZM147.23 69.4471C146.812 67.6423 146.077 65.8942 145.046 64.255C144.102 62.7492 142.868 61.3718 141.389 60.1736C139.936 59.0218 138.229 58.0968 136.354 57.4456C133.59 56.4935 130.527 56.2458 127.581 56.7364C124.635 57.2269 121.949 58.4318 119.888 60.1874C118.425 61.4198 117.206 62.8244 116.274 64.3522C115.279 65.9737 114.578 67.7012 114.194 69.4818L147.23 69.4471Z" fill="#039767"/>
<path d="M175.43 100.912C174.211 99.6976 173.577 98.1727 173.645 96.6154L173.601 57.1056H169.181C168.326 57.1081 167.483 56.9416 166.727 56.6207C165.971 56.2998 165.326 55.8346 164.848 55.2661C163.65 54.0156 163.002 52.4832 163.002 50.907C162.933 49.3485 163.564 47.8218 164.779 46.6034C165.289 46.0699 165.944 45.6373 166.695 45.3388C167.447 45.0404 168.273 44.8841 169.112 44.882H173.532V30.0137C173.462 28.4572 174.092 26.9324 175.308 25.7171C175.817 25.1832 176.473 24.7506 177.224 24.4527C177.976 24.1549 178.803 24 179.641 24C180.48 24 181.307 24.1549 182.059 24.4527C182.81 24.7506 183.466 25.1832 183.975 25.7171C185.166 26.9413 185.779 28.4628 185.708 30.0137V44.882H190.986C191.834 44.8741 192.673 45.025 193.436 45.3227C194.199 45.6203 194.864 46.0565 195.379 46.5965C196.57 47.8234 197.184 49.347 197.113 50.9001C197.184 52.4894 196.572 54.0504 195.379 55.3217C194.878 55.8785 194.218 56.3311 193.453 56.6415C192.689 56.9518 191.843 57.111 190.986 57.1056H185.708L185.751 96.6154C185.83 98.1693 185.216 99.6949 184.018 100.919C183.514 101.457 182.859 101.893 182.107 102.192C181.354 102.491 180.525 102.645 179.685 102.64C178.858 102.63 178.046 102.468 177.309 102.169C176.571 101.869 175.929 101.44 175.43 100.912V100.912Z" fill="#039767"/>
<path d="M218.587 101.072C214.952 99.5031 211.759 97.3503 209.21 94.7482C206.418 91.9296 204.267 88.7387 202.858 85.322C199.883 77.9934 199.883 70.0983 202.858 62.7697C204.259 59.351 206.404 56.1575 209.193 53.3365C211.729 50.7312 214.909 48.5737 218.535 46.9991C221.988 45.5131 225.844 44.7289 229.763 44.7156C233.683 44.7023 237.547 45.4602 241.015 46.9228C244.636 48.4589 247.813 50.5873 250.34 53.1699C253.106 55.9753 255.243 59.1435 256.658 62.5337C258.189 66.1446 258.979 69.9304 258.998 73.7439V96.2961C259.044 97.8827 258.434 99.437 257.264 100.718C256.745 101.299 256.062 101.775 255.271 102.106C254.508 102.43 253.657 102.6 252.793 102.599C252.01 102.603 251.237 102.462 250.535 102.186C249.833 101.91 249.22 101.507 248.745 101.009C247.606 99.8704 246.94 98.475 246.839 97.018C241.639 101.238 235.986 103.351 229.879 103.355C225.937 103.358 222.056 102.573 218.587 101.072V101.072ZM236.465 89.688C238.576 88.7687 240.431 87.5146 241.917 86.0022C243.513 84.3735 244.737 82.531 245.53 80.5602C247.24 76.2826 247.24 71.6841 245.53 67.4065C244.732 65.4381 243.505 63.5982 241.908 61.9715C240.434 60.4679 238.576 59.2347 236.457 58.3551C234.412 57.5031 232.141 57.0601 229.836 57.064C227.562 57.0672 225.322 57.5126 223.31 58.362C221.204 59.2515 219.358 60.4888 217.894 61.9923C216.268 63.6371 215.015 65.4979 214.193 67.4898C213.309 69.5988 212.866 71.8106 212.885 74.0354C212.871 76.2628 213.328 78.476 214.237 80.5811C215.066 82.5485 216.312 84.387 217.92 86.0161C219.4 87.523 221.245 88.7744 223.345 89.695C225.337 90.5958 227.583 91.0737 229.871 91.0832C232.18 91.0682 234.448 90.5885 236.465 89.688V89.688Z" fill="#039767"/>
</g>
<defs>
<clipPath id="clip0_245_1984">
<rect width="648.87" height="286.9" fill="white"/>
</clipPath>
</defs>
</svg>
