<svg width="25" height="24" viewBox="0 0 25 24" fill="none" xmlns="http://www.w3.org/2000/svg">
<path d="M12.4999 5C14.1167 5 15.6012 5.55353 16.7863 6.47406L20.4234 3.00409C18.3087 1.13995 15.5406 0 12.4999 0C7.89233 0 3.89661 2.59991 1.88574 6.40985L5.93018 9.60278C6.90991 6.91937 9.47742 5 12.4999 5Z" fill="#F44336"/>
<path d="M24.3961 13.5018C24.4586 13.0102 24.5 12.5087 24.5 12C24.5 11.1422 24.4063 10.3068 24.2352 9.5H12.5V14.5H18.9862C18.4615 15.8638 17.5272 17.0178 16.338 17.8195L20.3975 21.0243C22.5494 19.1354 24.022 16.4904 24.3961 13.5018Z" fill="#2196F3"/>
<path d="M5.5 12.0001C5.5 11.1566 5.65686 10.3517 5.93024 9.60284L1.8858 6.40991C1.00433 8.08008 0.5 9.98022 0.5 12.0001C0.5 13.9973 0.995056 15.8764 1.85822 17.533L5.90778 14.336C5.64844 13.6045 5.5 12.8205 5.5 12.0001Z" fill="#FFC107"/>
<path d="M12.5002 19C9.45465 19 6.87061 17.0515 5.90796 14.3359L1.8584 17.533C3.85944 21.3735 7.87 24 12.5002 24C15.528 24 18.2889 22.8752 20.3976 21.0243L16.3382 17.8195C15.2414 18.5589 13.9286 19 12.5002 19Z" fill="#00B060"/>
<path opacity="0.1" d="M12.4998 23.7499C8.96814 23.7499 5.79254 22.2927 3.54736 19.9712C5.74518 22.4377 8.93628 23.9999 12.4998 23.9999C16.0304 23.9999 19.1951 22.4685 21.3879 20.0406C19.1494 22.3245 15.9979 23.7499 12.4998 23.7499Z" fill="black"/>
<path opacity="0.1" d="M12.5 14.25V14.5H18.9862L19.0875 14.25H12.5Z" fill="black"/>
<path d="M24.4942 12.147C24.495 12.0977 24.4998 12.0493 24.4998 11.9999C24.4998 11.986 24.4976 11.9725 24.4975 11.9585C24.4968 12.0215 24.4937 12.0837 24.4942 12.147Z" fill="#E6E6E6"/>
<path opacity="0.2" d="M12.5 9.5V9.75H24.2856C24.2698 9.66748 24.2526 9.58191 24.2352 9.5H12.5Z" fill="#FEFEFE"/>
<path d="M24.2352 9.5H12.5V14.5H18.9862C17.9775 17.1216 15.4772 19 12.5 19C8.63403 19 5.5 15.866 5.5 12C5.5 8.13397 8.63403 5 12.5 5C13.9019 5 15.1939 5.43066 16.2885 6.14069C16.4561 6.24957 16.6289 6.35181 16.7863 6.47406L20.4235 3.00409L20.3414 2.94098C18.2369 1.11707 15.5035 0 12.5 0C5.87256 0 0.5 5.37256 0.5 12C0.5 18.6274 5.87256 24 12.5 24C18.6177 24 23.6555 19.4188 24.3961 13.5018C24.4586 13.0102 24.5 12.5087 24.5 12C24.5 11.1422 24.4063 10.3068 24.2352 9.5Z" fill="url(#paint0_linear)"/>
<path opacity="0.1" d="M16.2885 5.89075C15.1939 5.18073 13.9019 4.75006 12.5 4.75006C8.63403 4.75006 5.5 7.88403 5.5 11.7501C5.5 11.7922 5.50057 11.8252 5.5013 11.8672C5.56874 8.05957 8.67621 5.00006 12.5 5.00006C13.9019 5.00006 15.1939 5.43073 16.2885 6.14075C16.4561 6.24963 16.6289 6.35187 16.7863 6.47412L20.4235 3.00415L16.7863 6.22412C16.6289 6.10187 16.4561 5.99963 16.2885 5.89075Z" fill="black"/>
<path opacity="0.2" d="M12.5 0.25C15.475 0.25 18.1829 1.34839 20.2793 3.1416L20.4235 3.00409L20.3134 2.90827C18.209 1.08436 15.5035 0 12.5 0C5.87256 0 0.5 5.37256 0.5 12C0.5 12.0422 0.505859 12.0829 0.506287 12.125C0.574036 5.55585 5.91473 0.25 12.5 0.25Z" fill="#FEFEFE"/>
<defs>
<linearGradient id="paint0_linear" x1="0.5" y1="12" x2="24.5" y2="12" gradientUnits="userSpaceOnUse">
<stop stop-color="white" stop-opacity="0.2"/>
<stop offset="1" stop-color="white" stop-opacity="0"/>
</linearGradient>
</defs>
</svg>
