<svg width="113" height="50" viewBox="0 0 113 50" fill="none" xmlns="http://www.w3.org/2000/svg">
<g clip-path="url(#clip0_246_2018)">
<path d="M106.031 49.5819H98.2984V28.0484H91.3098V21.9427H113V28.0484H106.034L106.031 49.5819Z" fill="#00897B"/>
<path d="M82.0991 39.5231V49.5819H74.3669V21.9427H83.7448C91.5235 21.9427 95.4128 24.6647 95.4128 30.1086C95.4128 33.3106 93.7944 35.7876 90.5575 37.5395L98.8975 49.5819H90.1257L84.0566 39.5231H82.0991ZM82.0991 33.9085H83.5498C86.2503 33.9085 87.6011 32.7557 87.6022 30.4499C87.6022 28.5459 86.2776 27.5945 83.6282 27.5956H82.1009L82.0991 33.9085Z" fill="#7CB342"/>
<path d="M69.0813 49.582L67.6707 44.401H58.3728L56.9239 49.582H48.429L57.7755 21.8296H68.0921L77.5466 49.582H69.0813ZM66.0667 38.2762L64.8338 33.7396C64.547 32.7319 64.1987 31.4275 63.7889 29.8265C63.3791 28.2255 63.1085 27.0784 62.9773 26.3853C62.8612 27.0274 62.629 28.0856 62.2807 29.5601C61.9325 31.0345 61.1656 33.9399 59.9802 38.2762H66.0667Z" fill="#14AA4B"/>
<path d="M30.7615 49.5819L24.9084 29.675H24.7342C25.0082 33.0651 25.1452 35.6988 25.1452 37.5761V49.5819H18.2925V21.9427H28.5882L34.5597 41.5658H34.7165L40.5696 21.9427H50.8844V49.5819H43.7792V37.4699C43.7792 36.8394 43.789 36.1429 43.8088 35.3801C43.8285 34.6173 43.9168 32.733 44.0735 29.7272H43.8993L38.1246 49.5976L30.7615 49.5819Z" fill="#338AE8"/>
<path d="M20.0463 41.1879C20.0721 42.8116 19.6006 44.4044 18.6949 45.7524C17.7951 47.0828 16.4965 48.1167 14.7992 48.8539C13.1018 49.5912 11.1119 49.9598 8.82935 49.9598C7.22187 49.9856 5.61567 49.8555 4.03329 49.5714C2.64064 49.2802 1.28697 48.8266 0 48.22V41.5658C1.46954 42.2954 3.01168 42.8686 4.60101 43.276C6.03097 43.6648 7.50433 43.8713 8.98608 43.8907C10.1343 43.8907 10.976 43.6986 11.5112 43.3143C11.7614 43.1545 11.967 42.9341 12.1089 42.6734C12.2508 42.4127 12.3244 42.1203 12.3228 41.8236C12.3291 41.4657 12.215 41.1161 11.9989 40.8309C11.7057 40.483 11.3517 40.1915 10.954 39.9706C10.4791 39.6815 9.21015 39.0894 7.14707 38.1943C5.28019 37.3735 3.88062 36.5794 2.94834 35.8119C2.06167 35.1013 1.35123 34.1954 0.872485 33.1649C0.423181 32.1687 0.19853 30.9903 0.19853 29.6297C0.19853 27.0836 1.15751 25.0983 3.07547 23.6738C4.99343 22.2492 7.62946 21.5375 10.9836 21.5387C13.9453 21.5387 16.9667 22.2005 20.048 23.524L17.6796 29.2848C15.0035 28.1076 12.6954 27.519 10.7554 27.519C9.75001 27.519 9.01917 27.6891 8.5629 28.0292C8.35375 28.1684 8.18196 28.3567 8.06262 28.5778C7.94329 28.7988 7.88006 29.0458 7.87849 29.297C7.87849 29.8392 8.16874 30.3239 8.74924 30.7512C9.32973 31.1784 10.9058 31.9603 13.4774 33.097C15.9433 34.1686 17.6558 35.3185 18.6148 36.5468C19.5737 37.7752 20.0509 39.3222 20.0463 41.1879Z" fill="#DD4545"/>
<path d="M2.95658 17.5821C2.74318 17.3706 2.62939 17.1057 2.63513 16.8338L2.62607 8.87256C2.61261 8.59625 2.72649 8.32563 2.94602 8.11222C3.03468 8.01843 3.14852 7.94182 3.27915 7.88804C3.40977 7.83427 3.55381 7.80471 3.70063 7.80155C3.82992 7.80099 3.95779 7.82323 4.07516 7.86668C4.19253 7.91014 4.29652 7.97374 4.37977 8.05299C4.57437 8.23142 4.69604 8.45332 4.72839 8.68882C5.3683 8.0965 6.06958 7.79994 6.83223 7.79913C7.36934 7.79502 7.89775 7.90783 8.36106 8.12551C8.84189 8.35504 9.24872 8.67179 9.5488 9.05026C9.94271 8.66976 10.4276 8.35618 10.975 8.12793C11.4765 7.91379 12.0351 7.79975 12.6034 7.79551C13.1133 7.79184 13.6157 7.89297 14.0628 8.08925C14.5214 8.29456 14.9149 8.5816 15.2129 8.92817C15.5397 9.30652 15.786 9.7256 15.9418 10.1684C16.1157 10.6591 16.2026 11.1669 16.1999 11.677V16.835C16.2131 17.1056 16.1061 17.3711 15.898 17.5845C15.8121 17.6774 15.7001 17.7529 15.5712 17.805C15.4423 17.857 15.2999 17.8842 15.1555 17.8843C15.0088 17.8812 14.8649 17.8518 14.7343 17.7982C14.6037 17.7447 14.4898 17.6683 14.4009 17.5748C14.1831 17.3691 14.0686 17.1059 14.0794 16.8363V11.6468C14.0746 11.4168 14.0314 11.1883 13.9512 10.9674C13.8806 10.7699 13.7683 10.5834 13.6191 10.4162C13.4832 10.2663 13.3048 10.1443 13.0986 10.0602C12.8924 9.97618 12.6643 9.93248 12.4329 9.9327C12.1932 9.9347 11.9573 9.9806 11.7432 10.0669C11.5105 10.1582 11.2992 10.2809 11.1184 10.4295C10.7323 10.746 10.5046 11.1649 10.4785 11.6069V16.8387C10.4917 17.1092 10.3847 17.3748 10.1766 17.5881C10.0909 17.6813 9.97902 17.7569 9.85003 17.809C9.72104 17.8611 9.57856 17.8881 9.4341 17.8879C9.28739 17.885 9.14339 17.8557 9.01276 17.8021C8.88213 17.7485 8.76823 17.6721 8.6795 17.5785C8.46359 17.3723 8.34926 17.1101 8.35804 16.8411V11.6081C8.36568 11.1785 8.20001 10.7584 7.88566 10.4102C7.75376 10.2619 7.57874 10.1416 7.37572 10.0596C7.17271 9.97769 6.94784 9.93661 6.72055 9.93995C6.48 9.94115 6.24283 9.98534 6.02631 10.0693C5.7952 10.1568 5.5852 10.2762 5.40603 10.4223C5.2163 10.5794 5.06299 10.7624 4.95327 10.9626C4.84099 11.1633 4.77943 11.3798 4.77216 11.5997V11.6637C4.76411 11.671 4.76411 11.6855 4.77216 11.7072C4.77979 11.7207 4.78374 11.7354 4.78374 11.7502C4.78374 11.765 4.77979 11.7796 4.77216 11.7931V16.8326C4.78396 17.1045 4.67724 17.3712 4.47032 17.5869C4.38482 17.6835 4.2717 17.7622 4.14041 17.8165C4.00913 17.8709 3.86349 17.8992 3.71572 17.8992C3.56794 17.8992 3.42231 17.8709 3.29102 17.8165C3.15973 17.7622 3.04661 17.6835 2.96111 17.5869L2.95658 17.5821Z" fill="#039767"/>
<path d="M20.7502 17.6136C20.1136 17.3426 19.5532 16.9698 19.1037 16.5184C18.6134 16.0305 18.2362 15.4761 17.9899 14.8817C17.4637 13.6011 17.4637 12.2191 17.9899 10.9385C18.2347 10.3422 18.6109 9.78582 19.1007 9.29573C19.5491 8.84344 20.1084 8.46949 20.7442 8.19692C21.3486 7.94043 22.0221 7.80599 22.7062 7.80526C23.3857 7.80143 24.0559 7.9318 24.6576 8.18483C25.2901 8.45597 25.8485 8.8259 26.2996 9.27276C26.7898 9.75507 27.1685 10.3036 27.4179 10.8926C27.688 11.5209 27.8277 12.1803 27.8314 12.8448C27.8454 13.1095 27.7417 13.3695 27.5386 13.5786C27.4488 13.6694 27.3339 13.7422 27.2029 13.7915C27.072 13.8408 26.9287 13.8651 26.784 13.8626H19.9549C20.0359 14.1539 20.1675 14.4347 20.3458 14.6967C20.5101 14.9424 20.7208 15.1663 20.9706 15.3604C21.2036 15.5473 21.4799 15.6959 21.784 15.798C22.0781 15.8975 22.3944 15.9481 22.7137 15.9466C23.0856 15.9599 23.4558 15.8981 23.7901 15.7669C24.1245 15.6358 24.4124 15.4394 24.6274 15.196C24.7168 15.1161 24.8252 15.0512 24.9462 15.0051C25.0671 14.9591 25.1984 14.9327 25.3322 14.9276C25.4544 14.9278 25.575 14.9497 25.6853 14.9917C25.9194 15.0862 26.1019 15.2462 26.1985 15.4414C26.3202 15.6256 26.383 15.8312 26.3811 16.0397C26.3846 16.1884 26.3506 16.3362 26.2811 16.4741C26.2116 16.612 26.108 16.7373 25.9766 16.8424C25.627 17.1773 25.1989 17.4541 24.7164 17.6571C24.0931 17.8952 23.4087 18.0128 22.7182 18.0004C22.0326 18.0025 21.3568 17.8696 20.7502 17.6136V17.6136ZM25.6401 12.0941C25.5674 11.7798 25.4393 11.4754 25.2597 11.1899C25.0953 10.9277 24.8804 10.6878 24.6229 10.4792C24.3699 10.2786 24.0726 10.1175 23.746 10.0041C23.2646 9.83828 22.7312 9.79515 22.2182 9.88058C21.7052 9.966 21.2375 10.1758 20.8785 10.4816C20.6237 10.6962 20.4115 10.9408 20.2492 11.2069C20.0758 11.4893 19.9538 11.7901 19.887 12.1002L25.6401 12.0941Z" fill="#039767"/>
<path d="M30.5511 17.5737C30.3388 17.3622 30.2284 17.0967 30.2402 16.8255L30.2326 9.94486H29.4629C29.314 9.94531 29.1672 9.9163 29.0355 9.86043C28.9039 9.80455 28.7915 9.72352 28.7083 9.62453C28.4997 9.40674 28.3867 9.13989 28.3869 8.86539C28.3749 8.59398 28.4846 8.3281 28.6963 8.11592C28.785 8.02302 28.8992 7.94767 29.03 7.8957C29.1608 7.84372 29.3048 7.8165 29.4509 7.81614H30.2206V5.22685C30.2084 4.95579 30.3182 4.69025 30.5299 4.47859C30.6185 4.38562 30.7327 4.31027 30.8636 4.25841C30.9945 4.20655 31.1385 4.17957 31.2845 4.17957C31.4306 4.17957 31.5746 4.20655 31.7055 4.25841C31.8364 4.31027 31.9506 4.38562 32.0391 4.47859C32.2466 4.69179 32.3534 4.95675 32.341 5.22685V7.81614H33.2601C33.4078 7.81477 33.554 7.84105 33.6868 7.89289C33.8196 7.94472 33.9355 8.02068 34.0253 8.11471C34.2327 8.32838 34.3395 8.59372 34.3271 8.86418C34.3396 9.14097 34.233 9.4128 34.0253 9.6342C33.938 9.73117 33.823 9.80999 33.6898 9.86404C33.5567 9.91809 33.4093 9.9458 33.2601 9.94486H32.341L32.3485 16.8255C32.3623 17.0961 32.2553 17.3618 32.0467 17.5749C31.9589 17.6687 31.8449 17.7446 31.7139 17.7967C31.5828 17.8487 31.4384 17.8755 31.2921 17.8747C31.1482 17.8728 31.0067 17.8447 30.8783 17.7926C30.7499 17.7404 30.638 17.6656 30.5511 17.5737V17.5737Z" fill="#039767"/>
<path d="M38.0668 17.6015C37.4337 17.3283 36.8778 16.9534 36.4338 16.5003C35.9475 16.0094 35.573 15.4537 35.3276 14.8587C34.8094 13.5824 34.8094 12.2075 35.3276 10.9312C35.5716 10.3359 35.9451 9.77972 36.4308 9.28846C36.8724 8.83475 37.4263 8.45901 38.0577 8.18481C38.659 7.92601 39.3305 7.78946 40.0131 7.78714C40.6957 7.78482 41.3686 7.91681 41.9726 8.17151C42.6031 8.43903 43.1564 8.80968 43.5965 9.25945C44.0782 9.74799 44.4504 10.2997 44.6967 10.8901C44.9634 11.519 45.101 12.1783 45.1042 12.8424V16.7698C45.1122 17.0461 45.0061 17.3168 44.8024 17.5398C44.712 17.6411 44.5931 17.724 44.4553 17.7816C44.3223 17.8381 44.1741 17.8676 44.0236 17.8674C43.8874 17.8682 43.7528 17.8436 43.6305 17.7956C43.5082 17.7476 43.4015 17.6774 43.3188 17.5906C43.1205 17.3923 43.0044 17.1493 42.9868 16.8955C42.0813 17.6305 41.0968 17.9984 40.0333 17.9992C39.3467 17.9996 38.6708 17.863 38.0668 17.6015V17.6015ZM41.1803 15.619C41.5479 15.4589 41.8709 15.2405 42.1296 14.9772C42.4076 14.6935 42.6207 14.3727 42.7589 14.0294C43.0567 13.2845 43.0567 12.4837 42.7589 11.7387C42.6199 11.3959 42.4063 11.0755 42.1281 10.7922C41.8715 10.5304 41.5478 10.3156 41.1788 10.1624C40.8227 10.0141 40.4271 9.93692 40.0257 9.93759C39.6297 9.93815 39.2397 10.0157 38.8893 10.1636C38.5226 10.3185 38.2011 10.534 37.9461 10.7959C37.6629 11.0823 37.4448 11.4063 37.3016 11.7532C37.1475 12.1205 37.0705 12.5057 37.0737 12.8932C37.0713 13.281 37.1509 13.6665 37.3092 14.0331C37.4536 14.3757 37.6706 14.6959 37.9506 14.9796C38.2083 15.242 38.5297 15.4599 38.8954 15.6202C39.2422 15.7771 39.6334 15.8603 40.0318 15.862C40.434 15.8594 40.8289 15.7758 41.1803 15.619V15.619Z" fill="#039767"/>
<rect x="56" y="8" width="19.5511" height="10.0909" rx="3.27273" fill="#44D600"/>
<path d="M62.9219 16H61.6016V11.7969L60.3047 12.1758V11.1758L62.8008 10.3125H62.9219V16ZM65.4727 14.7227C65.681 14.7227 65.8542 14.7852 65.9922 14.9102C66.1302 15.0326 66.1992 15.1901 66.1992 15.3828C66.1992 15.5755 66.1302 15.7344 65.9922 15.8594C65.8542 15.9818 65.681 16.043 65.4727 16.043C65.2617 16.043 65.0872 15.9805 64.9492 15.8555C64.8138 15.7305 64.7461 15.5729 64.7461 15.3828C64.7461 15.1927 64.8138 15.0352 64.9492 14.9102C65.0872 14.7852 65.2617 14.7227 65.4727 14.7227ZM71.0078 13.6758C71.0078 14.444 70.8346 15.0365 70.4883 15.4531C70.1445 15.8698 69.6589 16.0781 69.0312 16.0781C68.3984 16.0781 67.9089 15.8685 67.5625 15.4492C67.2161 15.0299 67.043 14.4388 67.043 13.6758V12.6367C67.043 11.8685 67.2148 11.276 67.5586 10.8594C67.9049 10.4427 68.3932 10.2344 69.0234 10.2344C69.6536 10.2344 70.1419 10.444 70.4883 10.8633C70.8346 11.2826 71.0078 11.875 71.0078 12.6406V13.6758ZM69.6914 12.4688C69.6914 12.0599 69.638 11.7552 69.5312 11.5547C69.4245 11.3516 69.2552 11.25 69.0234 11.25C68.7969 11.25 68.6315 11.3438 68.5273 11.5312C68.4258 11.7188 68.3711 12.0026 68.3633 12.3828V13.8359C68.3633 14.2604 68.4167 14.5716 68.5234 14.7695C68.6302 14.9648 68.7995 15.0625 69.0312 15.0625C69.2552 15.0625 69.4206 14.9674 69.5273 14.7773C69.6341 14.5846 69.6888 14.2839 69.6914 13.875V12.4688Z" fill="white"/>
</g>
<defs>
<clipPath id="clip0_246_2018">
<rect width="113" height="49.9633" fill="white"/>
</clipPath>
</defs>
</svg>
