<svg xmlns="http://www.w3.org/2000/svg" width="49" height="48" viewBox="0 0 49 48">
  <g id="IconRelatorioDia" transform="translate(-5739 -4923)">
    <path id="Caminho_569" data-name="Caminho 569" d="M24.5,0A24.254,24.254,0,0,1,49,24,24.254,24.254,0,0,1,24.5,48,24.254,24.254,0,0,1,0,24,24.254,24.254,0,0,1,24.5,0Z" transform="translate(5739 4923)" fill="#00897b"/>
    <g id="Grupo_1406" data-name="Grupo 1406" transform="translate(5392.932 4361)">
      <g id="newspaper-sharp" transform="translate(357.324 574.873)">
        <path id="Caminho_593" data-name="Caminho 593" d="M7.642,7.875h3.567a.892.892,0,0,1,.892.892v3.567a.892.892,0,0,1-.892.892H7.642a.892.892,0,0,1-.892-.892V8.767A.892.892,0,0,1,7.642,7.875Z" transform="translate(17.894 -7.875)" fill="none"/>
        <path id="Caminho_595" data-name="Caminho 595" d="M20.685,22.837a2.961,2.961,0,0,1-2.177-2.852V2.8a.554.554,0,0,0-.554-.554H2.8A.554.554,0,0,0,2.25,2.8v17.55a2.587,2.587,0,0,0,2.587,2.587H20.671a.053.053,0,0,0,.014-.1ZM5.206,10.379V5.945H9.64v4.434Zm10.345,8.868H5.206V17.768H15.551Zm0-2.956H5.206V14.812H15.551Zm0-2.956H5.206V11.856H15.551Zm0-2.956H11.118V8.9h4.434Zm0-2.956H11.118V5.945h4.434Z" transform="translate(-2.25 1.532)" fill="#fff"/>
      </g>
      <g id="Grupo_1406-2" data-name="Grupo 1406" transform="translate(357 572)">
        <g id="calendar-day">
          <path id="Caminho_606" data-name="Caminho 606" d="M1.783,7.6V25.435a1.783,1.783,0,0,0,1.783,1.783h21.4a1.783,1.783,0,0,0,1.783-1.783V7.6ZM3.567,2.25A3.567,3.567,0,0,0,0,5.817V25.435A3.567,3.567,0,0,0,3.567,29h21.4a3.567,3.567,0,0,0,3.567-3.567V5.817A3.567,3.567,0,0,0,24.968,2.25Z" transform="translate(0 -0.467)" fill="#fff" fill-rule="evenodd"/>
          <path id="Caminho_607" data-name="Caminho 607" d="M7.642,0a.892.892,0,0,1,.892.892v.892a.892.892,0,0,1-1.783,0V.892A.892.892,0,0,1,7.642,0ZM23.693,0a.892.892,0,0,1,.892.892v.892a.892.892,0,1,1-1.783,0V.892A.892.892,0,0,1,23.693,0Z" transform="translate(-1.4 0)" fill="#fff" fill-rule="evenodd"/>
        </g>
        <text id="dia" transform="translate(19.068 10) rotate(90)" fill="#fff" font-size="9" font-family="Roboto-Bold, Roboto" font-weight="700"><tspan x="0" y="0">dia</tspan></text>
      </g>
    </g>
  </g>
</svg>
