<svg xmlns="http://www.w3.org/2000/svg" width="49" height="48" viewBox="0 0 49 48">
  <g id="IconRelatorioDetalado" transform="translate(-182 -767)">
    <g id="Grupo_3637" data-name="Grupo 3637" transform="translate(-5557 -4156)">
      <ellipse id="Elipse_134" data-name="Elipse 134" cx="24.5" cy="24" rx="24.5" ry="24" transform="translate(5739 4923)" fill="#188038"/>
      <path id="news" d="M28.549,30.435H1.919A1.814,1.814,0,0,1,.567,29.87a1.851,1.851,0,0,1-.55-1.337V1.9A1.838,1.838,0,0,1,.567.55,1.838,1.838,0,0,1,1.919,0h26.63A1.838,1.838,0,0,1,29.9.55a1.838,1.838,0,0,1,.55,1.352v26.63a1.879,1.879,0,0,1-1.9,1.9Zm-16.168-3.8H19.99a.951.951,0,0,0,0-1.9H12.381a.951.951,0,0,0,0,1.9Zm-7.608,0h3.8a.951.951,0,0,0,0-1.9h-3.8a.951.951,0,0,0,0,1.9Zm0-5.706h3.8a.951.951,0,0,0,0-1.9h-3.8a.951.951,0,0,0,0,1.9ZM15.235,4.756a.9.9,0,0,0-.283-.684.94.94,0,0,0-.669-.267H4.773a.938.938,0,0,0-.669.267.9.9,0,0,0-.283.684v9.511a.965.965,0,0,0,.951.951h9.511a.965.965,0,0,0,.951-.951V4.756Zm.951,14.267h-3.8a.951.951,0,0,0,0,1.9h3.8a.951.951,0,0,0,0-1.9ZM25.7,7.609h-.951V6.658a.9.9,0,0,0-.283-.684.969.969,0,0,0-1.337,0,.9.9,0,0,0-.283.684v.951h-3.8V6.658a.9.9,0,0,0-.283-.684.969.969,0,0,0-1.337,0,.9.9,0,0,0-.283.684v1.9a.965.965,0,0,0,.951.951H25.7a.912.912,0,0,0,.669-.283.936.936,0,0,0,.283-.684.878.878,0,0,0-.283-.669.942.942,0,0,0-.669-.267Zm0,5.706H18.088a.938.938,0,0,0-.669.267.886.886,0,0,0-.283.669.927.927,0,0,0,.283.684.916.916,0,0,0,.669.283H25.7a.912.912,0,0,0,.669-.283.936.936,0,0,0,.283-.684.878.878,0,0,0-.283-.669.942.942,0,0,0-.669-.267Zm0,5.706H19.991a.951.951,0,0,0,0,1.9H25.7a.951.951,0,0,0,0-1.9Zm0,5.706h-1.9a.951.951,0,0,0,0,1.9h1.9a.951.951,0,0,0,0-1.9Z" transform="translate(5747.983 4932)" fill="#fff"/>
    </g>
  </g>
</svg>
