<svg xmlns="http://www.w3.org/2000/svg" width="49" height="48" viewBox="0 0 49 48">
  <g id="IconGirodaSabedoria" transform="translate(-8859 -5147)">
    <g id="Grupo_1286" data-name="Grupo 1286" transform="translate(3120 224)">
      <ellipse id="Elipse_134" data-name="Elipse 134" cx="24.5" cy="24" rx="24.5" ry="24" transform="translate(5739 4923)" fill="#f7a340"/>
    </g>
    <g id="Grupo_1424" data-name="Grupo 1424" transform="translate(8453 4038.714)">
      <path id="Icon_awesome-slideshare" data-name="Icon awesome-slideshare" d="M12.821,10.491A4.079,4.079,0,0,0,8.61,14.429a4.092,4.092,0,0,0,4.211,3.938,4.092,4.092,0,0,0,4.211-3.938A4.079,4.079,0,0,0,12.821,10.491Zm9.788,0A4.079,4.079,0,0,0,18.4,14.429a4.092,4.092,0,0,0,4.211,3.938,4.079,4.079,0,0,0,4.211-3.938A4.062,4.062,0,0,0,22.609,10.491ZM33.3,16.633l-.41.293V3.392A3.276,3.276,0,0,0,29.748,0H5.238A3.276,3.276,0,0,0,2.1,3.392V16.927c-.137-.1-.293-.2-.43-.293C.638,15.91-.045,16.906.576,17.841a18.225,18.225,0,0,0,7.255,4.914C3.989,35.84,17.21,37.929,17,31.226c0-.048.02-3.863.02-6.593.348.075.642.157.935.212,0,2.71.02,6.334.02,6.382-.212,6.709,13.009,4.621,9.166-8.463A18.277,18.277,0,0,0,34.4,17.848c.621-.942-.061-1.932-1.1-1.215Zm-2.082,1.31a18.95,18.95,0,0,1-10.961,2.027c-1.618-.061-2.225.621-2.3,1.7A16.713,16.713,0,0,1,16.568,20.5a2.366,2.366,0,0,0-1.85-.526A19.278,19.278,0,0,1,3.975,18.067V4.935c0-2.382.607-3.119,2.771-3.119H28.431c2.068,0,2.792.88,2.792,3.119V17.944Z" transform="translate(412.517 1116.066)" fill="#f6f9fc"/>
      <path id="Icon_material-replay-10" data-name="Icon material-replay-10" d="M4.016,2.008V0L1.506,2.51l2.51,2.51V3.012A3.012,3.012,0,1,1,1,6.023H0A4.016,4.016,0,1,0,4.016,2.008Z" transform="matrix(-0.309, -0.951, 0.951, -0.309, 426.044, 1128.442)" fill="#f6f9fc"/>
    </g>
  </g>
</svg>
