<svg xmlns="http://www.w3.org/2000/svg" width="49" height="48" viewBox="0 0 49 48">
  <g id="IconMatrizArgumetacaoes" transform="translate(-5739 -4923)">
    <ellipse id="Elipse_134" data-name="Elipse 134" cx="24.5" cy="24" rx="24.5" ry="24" transform="translate(5739 4923)" fill="#dd4545"/>
    <path id="Icon_awesome-comments-dollar" data-name="Icon awesome-comments-dollar" d="M25.606,12.1c0-5.439-5.732-9.848-12.8-9.848S0,6.659,0,12.1A8.358,8.358,0,0,0,2.337,17.76a13.778,13.778,0,0,1-2.2,3.356.492.492,0,0,0,.357.831,10.831,10.831,0,0,0,5.462-1.538A15.623,15.623,0,0,0,12.8,21.947C19.874,21.947,25.606,17.538,25.606,12.1ZM11.818,18.007V17a3.524,3.524,0,0,1-1.931-.7.493.493,0,0,1-.035-.747l.723-.69a.505.505,0,0,1,.624-.045,1.482,1.482,0,0,0,.789.229h1.73a.774.774,0,0,0,.726-.812.8.8,0,0,0-.54-.784l-2.77-.831A2.786,2.786,0,0,1,9.191,9.956a2.741,2.741,0,0,1,2.626-2.774V6.189A.492.492,0,0,1,12.31,5.7h.985a.492.492,0,0,1,.492.492v1a3.52,3.52,0,0,1,1.931.7.493.493,0,0,1,.035.747l-.723.69a.505.505,0,0,1-.624.045,1.476,1.476,0,0,0-.789-.229h-1.73a.774.774,0,0,0-.726.812.8.8,0,0,0,.54.784l2.77.831a2.786,2.786,0,0,1,1.944,2.671,2.741,2.741,0,0,1-2.626,2.774v.992a.492.492,0,0,1-.492.492H12.31A.492.492,0,0,1,11.818,18.007Zm21.3,7.632a8.355,8.355,0,0,0,2.338-5.662c0-4.12-3.292-7.645-7.961-9.114a9.551,9.551,0,0,1,.082,1.235c0,6.517-6.627,11.818-14.773,11.818A18.358,18.358,0,0,1,10.85,23.8c1.941,3.54,6.494,6.025,11.8,6.025A15.623,15.623,0,0,0,29.5,28.288a10.831,10.831,0,0,0,5.462,1.538.492.492,0,0,0,.356-.832A13.725,13.725,0,0,1,33.116,25.639Z" transform="translate(5746 4930.675)" fill="#f6f9fc"/>
  </g>
</svg>
