<svg xmlns="http://www.w3.org/2000/svg" width="49" height="48" viewBox="0 0 49 48">
  <g id="IconMaterialApoio" transform="translate(-8859 -5147)">
    <ellipse id="Elipse_134" data-name="Elipse 134" cx="24.5" cy="24" rx="24.5" ry="24" transform="translate(8859 5147)" fill="#1967d2"/>
    <path id="Caminho_583" data-name="Caminho 583" d="M30.094,15.75H20.25a3.375,3.375,0,0,1-3.375-3.375V2.531a.281.281,0,0,0-.281-.281H10.125a4.5,4.5,0,0,0-4.5,4.5v22.5a4.5,4.5,0,0,0,4.5,4.5h15.75a4.5,4.5,0,0,0,4.5-4.5V16.031a.281.281,0,0,0-.281-.281ZM23.625,27H12.375a1.125,1.125,0,0,1,0-2.25h11.25a1.125,1.125,0,0,1,0,2.25Zm0-5.625H12.375a1.125,1.125,0,0,1,0-2.25h11.25a1.125,1.125,0,0,1,0,2.25Z" transform="translate(8865.375 5152.75)" fill="#f6f9fc"/>
    <path id="Caminho_584" data-name="Caminho 584" d="M29.476,13.26,19.365,3.149a.141.141,0,0,0-.24.1v9.127A1.125,1.125,0,0,0,20.25,13.5h9.127a.141.141,0,0,0,.1-.24Z" transform="translate(8865.375 5152.75)" fill="#f6f9fc"/>
  </g>
</svg>
