<svg xmlns="http://www.w3.org/2000/svg" width="49" height="48" viewBox="0 0 49 48">
  <g id="IconCalcAmortizacao" transform="translate(-8859 -5147)">
    <ellipse id="Elipse_134" data-name="Elipse 134" cx="24.5" cy="24" rx="24.5" ry="24" transform="translate(8859 5147)" fill="#7cb342"/>
    <path id="Icon_metro-calculator" data-name="Icon metro-calculator" d="M14.139,3.856H4.5A1.934,1.934,0,0,0,2.571,5.784v9.64A1.934,1.934,0,0,0,4.5,17.352h9.64a1.934,1.934,0,0,0,1.928-1.928V5.784a1.934,1.934,0,0,0-1.928-1.928Zm0,7.712H4.5V9.64h9.64ZM29.563,3.856h-9.64a1.934,1.934,0,0,0-1.928,1.928V30.849a1.934,1.934,0,0,0,1.928,1.928h9.64a1.934,1.934,0,0,0,1.928-1.928V5.784A1.934,1.934,0,0,0,29.563,3.856Zm0,17.352h-9.64V19.28h9.64Zm0-5.784h-9.64V13.5h9.64ZM14.139,19.28H4.5a1.934,1.934,0,0,0-1.928,1.928v9.64A1.934,1.934,0,0,0,4.5,32.777h9.64a1.934,1.934,0,0,0,1.928-1.928v-9.64a1.934,1.934,0,0,0-1.928-1.928Zm0,7.712H10.283v3.856H8.355V26.992H4.5V25.064H8.355V21.208h1.928v3.856h3.856v1.928Z" transform="translate(8866.43 5153.144)" fill="#f6f9fc"/>
  </g>
</svg>
