<svg width="49" height="48" viewBox="0 0 49 48" fill="none" xmlns="http://www.w3.org/2000/svg">
<path d="M24.5 48C38.031 48 49 37.2548 49 24C49 10.7452 38.031 0 24.5 0C10.969 0 0 10.7452 0 24C0 37.2548 10.969 48 24.5 48Z" fill="#91268E"/>
<path d="M36.76 22.4318V9.13184H9.04297V36.8488H22.343C23.1972 38.1258 24.3238 39.1975 25.6418 39.9867C26.9599 40.776 28.4365 41.2633 29.9654 41.4135C31.4944 41.5637 33.0376 41.373 34.484 40.8553C35.9304 40.3375 37.2441 39.5056 38.3304 38.4192C39.4167 37.3329 40.2487 36.0193 40.7664 34.5729C41.2842 33.1264 41.4748 31.5832 41.3246 30.0543C41.1745 28.5254 40.6872 27.0487 39.8979 25.7307C39.1086 24.4127 38.0369 23.286 36.76 22.4318ZM22.343 25.3008C21.8654 26.0199 21.4797 26.7959 21.195 27.6108H13.663V29.9208H20.663C20.6196 30.3043 20.5972 30.6899 20.596 31.0758C20.5965 32.2566 20.7995 33.4286 21.196 34.5408H11.353V11.4418H34.453V21.2848C32.7812 20.6867 30.9836 20.5294 29.2334 20.8283C27.4832 21.1271 25.8395 21.8719 24.461 22.9908H13.663V25.3008H22.343ZM30.985 39.0248C29.4125 39.025 27.8753 38.5589 26.5678 37.6854C25.2603 36.812 24.2412 35.5703 23.6393 34.1176C23.0375 32.6649 22.88 31.0664 23.1867 29.5241C23.4934 27.9819 24.2506 26.5652 25.3625 25.4533C26.4744 24.3414 27.891 23.5843 29.4332 23.2775C30.9755 22.9708 32.5741 23.1283 34.0268 23.7302C35.4795 24.332 36.7211 25.3512 37.5946 26.6587C38.4681 27.9662 38.9342 29.5034 38.934 31.0758C38.929 33.1822 38.09 35.2009 36.6005 36.6904C35.1111 38.1798 33.0924 39.0188 30.986 39.0238L30.985 39.0248Z" fill="#F6F9FC"/>
<path d="M32.375 17.7212H13.604V20.3142H32.375V17.7212Z" fill="#F6F9FC"/>
<path d="M28.4081 25.3008V31.5128C27.9521 31.3519 27.4567 31.3403 26.9937 31.4796C26.5306 31.6189 26.1239 31.902 25.8324 32.2878C25.541 32.6737 25.3798 33.1422 25.3723 33.6257C25.3649 34.1092 25.5114 34.5826 25.7908 34.9772C26.0702 35.3719 26.468 35.6674 26.9265 35.821C27.385 35.9746 27.8805 35.9783 28.3413 35.8316C28.802 35.6849 29.2042 35.3953 29.4894 35.0049C29.7747 34.6144 29.9283 34.1433 29.9281 33.6598V27.5808L34.4871 28.3408V33.0328C34.0311 32.8719 33.5357 32.8603 33.0727 32.9996C32.6096 33.1389 32.2029 33.422 31.9114 33.8078C31.62 34.1937 31.4588 34.6622 31.4513 35.1457C31.4439 35.6292 31.5904 36.1026 31.8698 36.4972C32.1492 36.8919 32.547 37.1874 33.0055 37.341C33.464 37.4946 33.9595 37.4983 34.4203 37.3516C34.881 37.2049 35.2832 36.9153 35.5684 36.5249C35.8537 36.1344 36.0073 35.6633 36.0071 35.1798V26.8208L28.4081 25.3008Z" fill="#F6F9FC"/>
</svg>
