<svg xmlns="http://www.w3.org/2000/svg" width="49" height="48" viewBox="0 0 49 48">
  <g id="IconAudioteca" transform="translate(-8859 -5147)">
    <g id="Grupo_1286" data-name="Grupo 1286" transform="translate(3120 224)">
      <ellipse id="Elipse_134" data-name="Elipse 134" cx="24.5" cy="24" rx="24.5" ry="24" transform="translate(5739 4923)" fill="#fbbc04"/>
      <path id="Caminho_14" data-name="Caminho 14" d="M27.717,13.3V0H0V27.717H13.3A10.393,10.393,0,1,0,27.717,13.3ZM13.3,16.169a10.339,10.339,0,0,0-1.148,2.31H4.62v2.31h7a10.584,10.584,0,0,0-.067,1.155,10.333,10.333,0,0,0,.6,3.465H2.31V2.31h23.1v9.843a10.332,10.332,0,0,0-9.992,1.706H4.62v2.31Zm8.642,13.724a7.95,7.95,0,1,1,7.949-7.949A7.967,7.967,0,0,1,21.943,29.892Z" transform="translate(5748.043 4932.132)" fill="#f6f9fc"/>
      <path id="Caminho_15" data-name="Caminho 15" d="M22.771,8H4v2.593H22.771Z" transform="translate(5748.604 4932.721)" fill="#f6f9fc"/>
      <path id="Caminho_17" data-name="Caminho 17" d="M5.04,0V6.212a2.278,2.278,0,1,0,1.52,2.147V2.28l4.559.76V7.732a2.278,2.278,0,1,0,1.52,2.147V1.52Z" transform="translate(5762.368 4948.301)" fill="#f6f9fc"/>
    </g>
  </g>
</svg>
