<svg xmlns="http://www.w3.org/2000/svg" width="49" height="48" viewBox="0 0 49 48">
  <g id="IconGlossarioPendencias" transform="translate(-8859 -5147)">
    <ellipse id="Elipse_134" data-name="Elipse 134" cx="24.5" cy="24" rx="24.5" ry="24" transform="translate(8859 5147)" fill="#338ae8"/>
    <path id="Icon_awesome-book" data-name="Icon awesome-book" d="M26.3,21.136V1.409A1.406,1.406,0,0,0,24.894,0H5.636A5.638,5.638,0,0,0,0,5.636V24.424A5.638,5.638,0,0,0,5.636,30.06H24.894A1.406,1.406,0,0,0,26.3,28.651v-.939a1.42,1.42,0,0,0-.523-1.1,13.093,13.093,0,0,1,0-4.386A1.4,1.4,0,0,0,26.3,21.136ZM7.515,7.867a.353.353,0,0,1,.352-.352H20.314a.353.353,0,0,1,.352.352V9.042a.353.353,0,0,1-.352.352H7.867a.353.353,0,0,1-.352-.352Zm0,3.758a.353.353,0,0,1,.352-.352H20.314a.353.353,0,0,1,.352.352V12.8a.353.353,0,0,1-.352.352H7.867a.353.353,0,0,1-.352-.352ZM22.393,26.3H5.636a1.879,1.879,0,0,1,0-3.758H22.393A21.136,21.136,0,0,0,22.393,26.3Z" transform="translate(8870.197 5156)" fill="#f6f9fc"/>
  </g>
</svg>
