<svg xmlns="http://www.w3.org/2000/svg" width="49" height="48" viewBox="0 0 49 48">
  <g id="IconScorecard" transform="translate(-8859 -5147)">
    <g id="Grupo_1286" data-name="Grupo 1286" transform="translate(3120 224)">
      <ellipse id="Elipse_134" data-name="Elipse 134" cx="24.5" cy="24" rx="24.5" ry="24" transform="translate(5739 4923)" fill="#f27b6f"/>
    </g>
    <path id="rocket" d="M27.824,6.167a1.85,1.85,0,1,0-3.7,0,1.85,1.85,0,1,0,3.7,0ZM32.141.616a21.533,21.533,0,0,1-1.455,8.3A22.041,22.041,0,0,1,25.8,15.86Q24.24,17.4,22.042,19.252l-.386,7.3a.7.7,0,0,1-.308.5l-7.4,4.317a.606.606,0,0,1-.308.077.692.692,0,0,1-.444-.174l-1.234-1.234a.613.613,0,0,1-.154-.616l1.638-5.319L8.031,18.694,2.712,20.333a.577.577,0,0,1-.174.02.6.6,0,0,1-.444-.174L.861,18.945a.585.585,0,0,1-.1-.752l4.317-7.4a.7.7,0,0,1,.5-.308l7.3-.386q1.85-2.2,3.392-3.758a22.451,22.451,0,0,1,6.9-4.972A21.7,21.7,0,0,1,31.485,0a.646.646,0,0,1,.462.183.58.58,0,0,1,.192.434Z" transform="translate(8865.331 5156.857)" fill="#f6f9fc"/>
  </g>
</svg>
