<svg width="49" height="48" viewBox="0 0 49 48" fill="none" xmlns="http://www.w3.org/2000/svg">
<g clip-path="url(#clip0)">
<path d="M24.5 4.19618e-05C30.9313 -0.065541 37.1253 2.42601 41.7198 6.92673C46.3143 11.4274 48.933 17.5688 49 24C48.933 30.4313 46.3143 36.5726 41.7198 41.0734C37.1253 45.5741 30.9313 48.0656 24.5 48C18.0687 48.0656 11.8747 45.5741 7.28022 41.0734C2.68574 36.5726 0.0670208 30.4313 0 24C0.0670208 17.5688 2.68574 11.4274 7.28022 6.92673C11.8747 2.42601 18.0687 -0.065541 24.5 4.19618e-05V4.19618e-05Z" fill="#C6883F"/>
<path d="M24.755 12.0329C25.7409 12.0228 26.6905 12.4047 27.3949 13.0946C28.0992 13.7845 28.5007 14.726 28.511 15.7119C28.5004 16.6977 28.0988 17.6389 27.3945 18.3286C26.6902 19.0183 25.7407 19.4 24.755 19.3899C23.7694 19.3998 22.8203 19.0179 22.1161 18.3282C21.412 17.6385 21.0106 16.6975 21 15.7119C21.0103 14.7262 21.4116 13.7849 22.1158 13.095C22.8199 12.4051 23.7693 12.023 24.755 12.0329V12.0329Z" fill="#FFB001"/>
<path fill-rule="evenodd" clip-rule="evenodd" d="M24.406 1.43799C24.5653 1.43799 24.723 1.46936 24.8702 1.53032C25.0174 1.59128 25.1511 1.68063 25.2637 1.79327C25.3764 1.90591 25.4657 2.03963 25.5267 2.18679C25.5876 2.33396 25.619 2.49169 25.619 2.65099V7.50199C25.619 7.8237 25.4912 8.13223 25.2637 8.35971C25.0362 8.58719 24.7277 8.71499 24.406 8.71499C24.0843 8.71499 23.7758 8.58719 23.5483 8.35971C23.3208 8.13223 23.193 7.8237 23.193 7.50199V2.65099C23.193 2.49169 23.2244 2.33396 23.2853 2.18679C23.3463 2.03963 23.4356 1.90591 23.5483 1.79327C23.6609 1.68063 23.7946 1.59128 23.9418 1.53032C24.089 1.46936 24.2467 1.43799 24.406 1.43799ZM43.811 20.844C43.8107 21.1652 43.6831 21.4731 43.4561 21.7004C43.2291 21.9276 42.9212 22.0555 42.6 22.056H37.747C37.5877 22.056 37.43 22.0246 37.2828 21.9637C37.1356 21.9027 37.0019 21.8133 36.8893 21.7007C36.7766 21.5881 36.6873 21.4544 36.6263 21.3072C36.5654 21.16 36.534 21.0023 36.534 20.843C36.534 20.6837 36.5654 20.526 36.6263 20.3788C36.6873 20.2316 36.7766 20.0979 36.8893 19.9853C37.0019 19.8726 37.1356 19.7833 37.2828 19.7223C37.43 19.6614 37.5877 19.63 37.747 19.63H42.6C42.9215 19.6305 43.2297 19.7587 43.4568 19.9863C43.6839 20.214 43.8113 20.5225 43.811 20.844ZM12.277 20.844C12.277 21.0033 12.2456 21.161 12.1847 21.3082C12.1237 21.4554 12.0344 21.5891 11.9217 21.7017C11.8091 21.8143 11.6754 21.9037 11.5282 21.9647C11.381 22.0256 11.2233 22.057 11.064 22.057H6.213C5.89129 22.057 5.58276 21.9292 5.35528 21.7017C5.1278 21.4742 5 21.1657 5 20.844C5 20.5223 5.1278 20.2137 5.35528 19.9863C5.58276 19.7588 5.89129 19.631 6.213 19.631H11.064C11.2233 19.631 11.381 19.6624 11.5282 19.7233C11.6754 19.7843 11.8091 19.8736 11.9217 19.9863C12.0344 20.0989 12.1237 20.2326 12.1847 20.3798C12.2456 20.527 12.277 20.6847 12.277 20.844ZM38.127 7.12199C38.3543 7.34945 38.4821 7.65789 38.4821 7.97949C38.4821 8.30109 38.3543 8.60952 38.127 8.83699L34.7 12.27C34.5886 12.3885 34.4545 12.4834 34.3057 12.5491C34.157 12.6148 33.9965 12.6499 33.8338 12.6524C33.6712 12.6549 33.5097 12.6247 33.359 12.5635C33.2083 12.5024 33.0714 12.4116 32.9565 12.2965C32.8415 12.1814 32.7509 12.0444 32.6899 11.8936C32.6289 11.7428 32.5989 11.5813 32.6016 11.4187C32.6042 11.2561 32.6395 11.0956 32.7054 10.9469C32.7713 10.7982 32.8664 10.6642 32.985 10.553L36.414 7.12399C36.6415 6.89664 36.9499 6.76893 37.2715 6.76893C37.5931 6.76893 37.9015 6.89664 38.129 7.12399L38.127 7.12199ZM15.827 12.269C15.5995 12.4963 15.2911 12.624 14.9695 12.624C14.6479 12.624 14.3395 12.4963 14.112 12.269L10.684 8.83799C10.5713 8.72531 10.4818 8.59154 10.4208 8.4443C10.3597 8.29706 10.3283 8.13923 10.3283 7.97984C10.3282 7.82045 10.3596 7.66261 10.4205 7.51533C10.4815 7.36806 10.5708 7.23423 10.6835 7.12149C10.7962 7.00875 10.93 6.91931 11.0772 6.85827C11.2244 6.79723 11.3823 6.76579 11.5416 6.76574C11.701 6.76569 11.8589 6.79704 12.0062 6.858C12.1534 6.91895 12.2873 7.00831 12.4 7.12099L15.829 10.55C15.9419 10.6627 16.0314 10.7965 16.0925 10.9438C16.1536 11.0911 16.1851 11.249 16.1851 11.4085C16.1851 11.568 16.1536 11.7259 16.0925 11.8732C16.0314 12.0205 15.9419 12.1543 15.829 12.267L15.827 12.269Z" fill="#FFB001"/>
<path d="M28 28.9999L24.8045 29.0379L21.8259 29.0377L19.5 29.0367L16 34.9999L22.487 38.4449V45.8449H27.123V38.4449L33 34.9999L30.327 28.9988L28 28.9999ZM30.657 34.0869L24.805 37.0139L18.952 34.0869L21.8259 29.0377L24.8045 29.0379L28 28.9999L30.657 34.0869Z" fill="#DEDEDE"/>
<path d="M27.4122 32.8038C27.4122 33.3194 27.2593 33.8234 26.9729 34.2521C26.6864 34.6809 26.2793 35.015 25.8029 35.2123C25.3265 35.4096 24.8024 35.4613 24.2966 35.3607C23.7909 35.2601 23.3264 35.0118 22.9618 34.6472C22.5972 34.2826 22.3489 33.8181 22.2483 33.3124C22.1477 32.8067 22.1994 32.2825 22.3967 31.8061C22.594 31.3298 22.9282 30.9226 23.3569 30.6361C23.7856 30.3497 24.2896 30.1968 24.8052 30.1968C25.4967 30.1968 26.1598 30.4714 26.6487 30.9604C27.1376 31.4493 27.4122 32.1124 27.4122 32.8038Z" fill="#DEDEDE"/>
<path d="M33.6539 16.5079C33.6566 17.4948 33.3992 18.4649 32.9077 19.3205C32.4161 20.1762 31.7077 20.8872 30.8539 21.3819C29.998 21.8786 29.0244 22.1362 28.0349 22.1279H27.4689C26.9887 22.2803 26.5681 22.5789 26.2658 22.9819C25.9635 23.3849 25.7947 23.8723 25.7829 24.3759C25.7359 24.8782 25.8458 25.3826 26.0974 25.8197C26.3491 26.2569 26.73 26.6053 27.1879 26.8169C27.683 26.8882 28.167 27.0226 28.6279 27.2169C28.9792 27.3809 29.1549 27.5566 29.1549 27.7439C29.1549 28.0599 28.7159 28.3266 27.8379 28.5439C26.7949 28.7783 25.7277 28.887 24.6589 28.8679C23.5901 28.8856 22.523 28.7765 21.4799 28.5429C20.6019 28.3269 20.1629 28.0603 20.1629 27.7429C20.1629 27.5556 20.3385 27.3799 20.6899 27.2159C21.1509 27.0219 21.6348 26.8875 22.1299 26.8159C22.5877 26.6043 22.9687 26.2559 23.2203 25.8187C23.472 25.3816 23.5818 24.8772 23.5349 24.3749C23.5231 23.8718 23.3546 23.385 23.0529 22.9822C22.7512 22.5794 22.3314 22.2808 21.8519 22.1279H21.2899C20.551 22.1307 19.8189 21.9873 19.1358 21.7058C18.4526 21.4244 17.8319 21.0105 17.3094 20.4881C16.7869 19.9657 16.3729 19.3451 16.0914 18.662C15.8098 17.9789 15.6662 17.2468 15.6689 16.5079C15.6433 15.4592 15.9677 14.4318 16.5909 13.5879C17.2141 12.7644 18.0758 12.1527 19.0589 11.8359C19.0469 11.4706 19.0409 11.1546 19.0409 10.8879H30.2819C30.2819 11.1693 30.2762 11.4853 30.2649 11.8359C31.2477 12.1527 32.109 12.7644 32.7319 13.5879C33.3548 14.432 33.6791 15.4593 33.6539 16.5079V16.5079ZM19.2689 14.1879C18.8449 14.4044 18.4921 14.7382 18.2524 15.1495C18.0127 15.5608 17.8962 16.0323 17.9169 16.5079C17.9107 16.9389 17.9907 17.3667 18.1521 17.7663C18.3135 18.1659 18.5531 18.5292 18.8569 18.8349C19.149 19.1486 19.5006 19.401 19.8911 19.5775C20.2817 19.7539 20.7035 19.851 21.1319 19.8629C20.1099 18.1273 19.4744 16.1916 19.2689 14.1879V14.1879ZM25.6799 14.2759L24.6619 12.0119L23.6429 14.2779L21.2889 14.5939L23.0279 16.2939L22.5689 18.7569L24.6589 17.5619L26.7489 18.7569L26.2949 16.2979L28.0339 14.5979L25.6799 14.2759ZM30.0539 14.1879C29.8488 16.1909 29.2136 18.126 28.1919 19.8609C28.6205 19.8497 29.0426 19.7532 29.4336 19.577C29.8245 19.4008 30.1765 19.1486 30.4689 18.8349C30.7726 18.5292 31.0122 18.1658 31.1736 17.7662C31.335 17.3667 31.415 16.9389 31.4089 16.5079C31.4293 16.032 31.3124 15.5603 31.0721 15.1489C30.8319 14.7376 30.4784 14.404 30.0539 14.1879V14.1879Z" fill="#F6DF15"/>
</g>
<defs>
<clipPath id="clip0">
<rect width="49" height="48" fill="white"/>
</clipPath>
</defs>
</svg>
