<svg xmlns="http://www.w3.org/2000/svg" width="49" height="48" viewBox="0 0 49 48">
  <g id="IconBuscaDetran" transform="translate(-8859 -5147)">
    <ellipse id="Elipse_134" data-name="Elipse 134" cx="24.5" cy="24" rx="24.5" ry="24" transform="translate(8859 5147)" fill="#00897b"/>
    <g id="Grupo_3633" data-name="Grupo 3633" transform="translate(8716 4501)">
      <path id="Icon_material-featured-play-list" data-name="Icon material-featured-play-list" d="M31.5,4.5H4.5a3.009,3.009,0,0,0-3,3v21a3.009,3.009,0,0,0,3,3h27a3.009,3.009,0,0,0,3-3V7.5A3.009,3.009,0,0,0,31.5,4.5ZM18,16.5H4.5v-3H18Zm0-6H4.5v-3H18Z" transform="translate(149.5 652.5)" fill="#f6f9fc"/>
      <path id="Icon_awesome-search" data-name="Icon awesome-search" d="M15.65,13.719l-3.09-3.09a.743.743,0,0,0-.527-.217h-.505a6.443,6.443,0,1,0-1.116,1.116v.505a.743.743,0,0,0,.217.527l3.09,3.09a.741.741,0,0,0,1.051,0l.877-.877a.747.747,0,0,0,0-1.054Zm-9.2-3.307a3.967,3.967,0,1,1,3.967-3.967A3.964,3.964,0,0,1,6.446,10.413Z" transform="translate(166.031 666.498)" fill="#f6f9fc" stroke="#00897b" stroke-width="1"/>
    </g>
  </g>
</svg>
