<svg xmlns="http://www.w3.org/2000/svg" width="49" height="48" viewBox="0 0 49 48">
  <g id="IconLembrame" transform="translate(-8859 -5147)">
    <g id="reminder" transform="translate(8864.5 5152.75)">
      <ellipse id="Elipse_134" data-name="Elipse 134" cx="24.5" cy="24" rx="24.5" ry="24" transform="translate(-5.5 -5.75)" fill="#91268e"/>
      <path id="Caminho_581" data-name="Caminho 581" d="M33.75,26.305,31.5,25.18V22.5a6.756,6.756,0,0,0-5.625-6.649V13.5h-2.25v2.351A6.756,6.756,0,0,0,18,22.5v2.68l-2.25,1.125V31.5H22.5v2.25H27V31.5h6.75ZM31.5,29.25H18V27.695l2.25-1.125V22.5a4.5,4.5,0,0,1,9,0v4.07l2.25,1.125Z" fill="#f6f9fc"/>
      <path id="Caminho_582" data-name="Caminho 582" d="M31.5,6.75A2.25,2.25,0,0,0,29.25,4.5h-4.5V2.25H22.5V4.5h-9V2.25H11.25V4.5H6.75A2.25,2.25,0,0,0,4.5,6.75v22.5A2.25,2.25,0,0,0,6.75,31.5h4.5V29.25H6.75V6.75h4.5V9H13.5V6.75h9V9h2.25V6.75h4.5V13.5H31.5Z" fill="#f6f9fc"/>
    </g>
  </g>
</svg>
