<svg width="49" height="48" viewBox="0 0 49 48" fill="none" xmlns="http://www.w3.org/2000/svg">
<path d="M24.5 48C38.031 48 49 37.2548 49 24C49 10.7452 38.031 0 24.5 0C10.969 0 0 10.7452 0 24C0 37.2548 10.969 48 24.5 48Z" fill="#1967D2"/>
<path d="M38 11H11C10.2051 11.0024 9.4434 11.3192 8.8813 11.8813C8.31921 12.4434 8.00237 13.2051 8 14V35C8.00237 35.7949 8.31921 36.5566 8.8813 37.1187C9.4434 37.6808 10.2051 37.9976 11 38H38C38.7949 37.9976 39.5566 37.6808 40.1187 37.1187C40.6808 36.5566 40.9976 35.7949 41 35V14C40.9976 13.2051 40.6808 12.4434 40.1187 11.8813C39.5566 11.3192 38.7949 11.0024 38 11ZM24.5 23H11V20H24.5V23ZM24.5 17H11V14H24.5V17Z" fill="#F6F9FC"/>
<path d="M38.6812 34.217L35.5912 31.127C35.522 31.0579 35.4398 31.0032 35.3493 30.966C35.2589 30.9287 35.162 30.9097 35.0642 30.91H34.5592C35.5683 29.6168 36.0462 27.9873 35.8953 26.3539C35.7445 24.7205 34.9763 23.2061 33.7474 22.1196C32.5185 21.033 30.9215 20.4561 29.2819 20.5065C27.6423 20.5568 26.0836 21.2306 24.9237 22.3905C23.7638 23.5504 23.09 25.1091 23.0397 26.7487C22.9893 28.3883 23.5662 29.9853 24.6528 31.2142C25.7393 32.4431 27.2537 33.2113 28.8871 33.3621C30.5205 33.513 32.15 33.0351 33.4432 32.026V32.531C33.4429 32.6288 33.4619 32.7257 33.4992 32.8161C33.5364 32.9066 33.5911 32.9888 33.6602 33.058L36.7502 36.148C36.8191 36.2173 36.901 36.2722 36.9911 36.3098C37.0813 36.3473 37.178 36.3666 37.2757 36.3666C37.3734 36.3666 37.4701 36.3473 37.5603 36.3098C37.6505 36.2722 37.7323 36.2173 37.8012 36.148L38.6782 35.271C38.8176 35.131 38.8958 34.9415 38.8958 34.744C38.8958 34.5465 38.8176 34.357 38.6782 34.217H38.6812ZM29.4812 30.91C28.6966 30.91 27.9296 30.6773 27.2773 30.2414C26.6249 29.8055 26.1164 29.186 25.8162 28.4611C25.5159 27.7362 25.4374 26.9386 25.5904 26.1691C25.7435 25.3996 26.1213 24.6927 26.6761 24.1379C27.2309 23.5831 27.9378 23.2053 28.7073 23.0522C29.4768 22.8992 30.2744 22.9777 30.9993 23.278C31.7242 23.5782 32.3438 24.0867 32.7797 24.7391C33.2156 25.3914 33.4482 26.1584 33.4482 26.943C33.4487 27.4645 33.3464 27.981 33.147 28.4628C32.9475 28.9447 32.655 29.3824 32.2861 29.751C31.9172 30.1197 31.4792 30.4119 30.9972 30.6109C30.5152 30.8099 29.9987 30.9119 29.4772 30.911L29.4812 30.91Z" fill="#F6F9FC" stroke="#1967D2"/>
</svg>
