<svg xmlns="http://www.w3.org/2000/svg" width="49" height="48" viewBox="0 0 49 48">
  <g id="IconCadastroMeta" transform="translate(-931 -258)">
    <g id="Grupo_1286" data-name="Grupo 1286" transform="translate(-4808 -4665)">
      <path id="Caminho_569" data-name="Caminho 569" d="M24.5,0A24.254,24.254,0,0,1,49,24,24.254,24.254,0,0,1,24.5,48,24.254,24.254,0,0,1,0,24,24.254,24.254,0,0,1,24.5,0Z" transform="translate(5739 4923)" fill="#00a54f"/>
    </g>
    <g id="Grupo_1403" data-name="Grupo 1403">
      <path id="folder-add" d="M30.966,8.673H17.753c-.712-.853-1.445-1.751-1.635-2.025A1.145,1.145,0,0,0,15.083,6H9.852a1.144,1.144,0,0,0-.892.427L7.152,8.673H5.034A1.977,1.977,0,0,0,3.06,10.647V28.029A1.976,1.976,0,0,0,5.034,30H30.966a1.976,1.976,0,0,0,1.974-1.974V10.647A1.976,1.976,0,0,0,30.966,8.673Zm-1.61,14.11a.239.239,0,0,1-.237.237h-3.16v3.161a.236.236,0,0,1-.236.237H23.509a.238.238,0,0,1-.237-.237V23.02H20.111a.237.237,0,0,1-.236-.237V20.569a.244.244,0,0,1,.237-.237h3.16V17.171a.237.237,0,0,1,.237-.237h2.214a.236.236,0,0,1,.237.237v3.16h3.161a.237.237,0,0,1,.237.237v2.214Z" transform="translate(937.94 264.003)" fill="#f6f9fc"/>
      <path id="stocks" d="M19.985,7.749,18.572,6.357l-5.731,5.751a1.231,1.231,0,0,1-.283.464,1.112,1.112,0,0,1-.989.323,1.141,1.141,0,0,1-.888-.343.913.913,0,0,1-.263-.424l-.747-.747q-.04.06-1.1,1.221T7.412,13.864a1.139,1.139,0,0,1-1.009.323,1.141,1.141,0,0,1-.888-.343.913.913,0,0,1-.263-.424l-.1-.1L2.69,15.781a.324.324,0,0,1-.051.04.324.324,0,0,0-.051.04V18.08H19.377a1.309,1.309,0,0,1,1.291,1.3,1.219,1.219,0,0,1-.383.908,1.26,1.26,0,0,1-.908.373H1.3a1.248,1.248,0,0,1-.918-.373,1.241,1.241,0,0,1-.372-.917V1.292A1.257,1.257,0,0,1,.38.384,1.22,1.22,0,0,1,1.288,0a1.254,1.254,0,0,1,.918.383,1.238,1.238,0,0,1,.383.908v11.2L3.962,11.12a1.069,1.069,0,0,1,.263-.424,1.141,1.141,0,0,1,.888-.343,1.191,1.191,0,0,1,.989.323,1.217,1.217,0,0,1,.283.484l.06.06L8.482,9.182a1.069,1.069,0,0,1,.263-.424,1.141,1.141,0,0,1,.888-.343,1.163,1.163,0,0,1,.989.323,1.217,1.217,0,0,1,.283.484l.706.706,5.267-5.267L15.5,3.29q-.02-.726.444-.706h4.076a.655.655,0,0,1,.646.646V7.306q.02.484-.686.444Z" transform="translate(936.295 277.299)" fill="#00a54f"/>
    </g>
  </g>
</svg>
